<svg id="Layer_1" data-name="Layer 1" xmlns="http://www.w3.org/2000/svg" viewBox="0 0 207.8 85.53"><defs><style>.cls-1{fill:none;stroke:#c6c6c6;stroke-linecap:round;stroke-linejoin:round;stroke-width:0.75px;}.cls-2{fill:#495362;}</style></defs><title>social_email</title><rect class="cls-1" x="92.41" y="25.21" width="38.6" height="24.29" rx="1.61" ry="1.61" transform="translate(6.3 89.93) rotate(-45)"/><polyline class="cls-1" points="90.16 42.26 111.78 37.37 116.61 15.81"/><line class="cls-1" x1="87.56" y1="49.59" x2="74.97" y2="62.18"/><line class="cls-1" x1="92.86" y1="54.88" x2="84.41" y2="63.32"/><line class="cls-1" x1="98.15" y1="60.17" x2="93.93" y2="64.39"/><path class="cls-2" d="M76.55,50.41H85v2.22H79.13v3.72h4.78v2.22H79.13v3.82h6.24v2.22H76.55V50.41Z"/><path class="cls-2" d="M88.77,50.41h2.76l2.78,7c0.32,0.84.72,2.08,0.72,2.08h0s0.38-1.24.7-2.08l2.78-7h2.76l1.14,14.2H99.89l-0.6-7.94c-0.06-.94,0-2.2,0-2.2h0s-0.42,1.38-.76,2.2l-2.3,5.5H93.91l-2.28-5.5c-0.34-.82-0.78-2.22-0.78-2.22h0s0,1.28,0,2.22l-0.6,7.94H87.61Z"/><path class="cls-2" d="M112.67,61h-5l-1.2,3.64h-2.66l5-14.2h2.7l5,14.2h-2.66Zm-2.5-8.1s-0.32,1.4-.6,2.2l-1.26,3.8H112l-1.26-3.8c-0.26-.8-0.56-2.2-0.56-2.2h0Z"/><path class="cls-2" d="M118.34,50.41h2.58v14.2h-2.58V50.41Z"/><path class="cls-2" d="M124.52,50.41h2.58v12h6.14v2.22h-8.72V50.41Z"/></svg>