<?xml version="1.0" encoding="utf-8"?>
<!-- Generator: Adobe Illustrator 19.2.0, SVG Export Plug-In . SVG Version: 6.00 Build 0)  -->
<svg version="1.1" id="Layer_1" xmlns="http://www.w3.org/2000/svg" xmlns:xlink="http://www.w3.org/1999/xlink" x="0px" y="0px"
	 viewBox="0 0 207.8 85.5" style="enable-background:new 0 0 207.8 85.5;" xml:space="preserve">
<style type="text/css">
	.st0{fill:none;stroke:#C6C6C6;stroke-width:2;stroke-linecap:round;stroke-linejoin:round;stroke-miterlimit:10;}
	.st1{fill:#495362;}
	.st2{fill:none;stroke:#000000;stroke-miterlimit:10;}
	.st3{fill:#FFFFFF;}
	.st4{fill:none;stroke:#000000;stroke-width:2;stroke-miterlimit:10;}
	.st5{fill:none;stroke:#C6C6C6;stroke-width:0.75;stroke-linecap:round;stroke-linejoin:round;stroke-miterlimit:10;}
	.st6{fill:none;stroke:#C6C6C6;stroke-width:0.8;stroke-linecap:round;stroke-linejoin:round;stroke-miterlimit:10;}
</style>
<g id="dribbble_2_">
	<g>
		<path class="st5" d="M103.9,16.5c-13.6,0-24.6,11-24.6,24.6c0,13.6,11,24.6,24.6,24.6s24.6-11,24.6-24.6
			C128.5,27.5,117.5,16.5,103.9,16.5z M120.1,28.4c2.6,3.4,4.3,7.6,4.4,12.1c-5.5-1-10.3-1-14.4-0.3c-0.5-1.2-1.1-2.4-1.6-3.5
			C112.8,34.9,116.8,32.2,120.1,28.4z M103.9,20.5c5.1,0,9.7,1.9,13.3,4.9c-2.9,3.5-6.5,5.9-10.7,7.6c-2.6-4.9-5.3-9-7.5-11.9
			C100.6,20.7,102.2,20.5,103.9,20.5z M95.1,22.5c2.1,2.8,4.9,6.8,7.6,11.8c-5.8,1.6-12.2,2-18.8,2C85.3,30.3,89.5,25.2,95.1,22.5z
			 M83.3,41.1c0-0.2,0-0.4,0-0.7c0,0,0.1,0,0.1,0c7.3,0,14.6-0.5,21.1-2.4c0.5,1,1,2,1.4,3.1c-8.6,2.5-13.9,8.2-17.6,13.5
			C85.3,51,83.3,46.3,83.3,41.1z M103.9,61.7c-4.7,0-9-1.6-12.5-4.2c3.5-5.2,8.3-10.4,16.2-12.6c1.8,4.7,3.3,9.9,4.1,15.3
			C109.3,61.1,106.7,61.7,103.9,61.7z M115.5,58.1c-0.8-4.9-2.2-9.6-3.9-14c3.6-0.5,7.7-0.3,12.5,0.5C123.2,50.2,120,55,115.5,58.1z
			"/>
	</g>
</g>
<g>
	<path class="st1" d="M58.2,51.6h4.8c4.4,0,7.2,2.6,7.2,7.1c0,4.5-2.9,7.1-7.2,7.1h-4.8V51.6z M62.9,63.6c2.9,0,4.7-1.7,4.7-4.9
		c0-3.2-1.9-4.9-4.7-4.9h-2.1v9.8H62.9z"/>
	<path class="st1" d="M73,51.6h4.6c1.5,0,2.2,0.1,2.9,0.4c1.4,0.6,2.3,2,2.3,3.9c0,1.7-0.9,3.3-2.4,3.9v0c0,0,0.2,0.2,0.5,0.7
		l2.9,5.3h-2.9l-2.8-5.3h-2.5v5.3H73V51.6z M77.9,58.2c1.4,0,2.2-0.8,2.2-2.2c0-1.4-0.6-2.2-2.6-2.2h-2v4.4H77.9z"/>
	<path class="st1" d="M86.2,51.6h2.6v14.2h-2.6V51.6z"/>
	<path class="st1" d="M92.4,51.6h5.1c2.6,0,4.4,1.3,4.4,3.7c0,1.3-0.6,2.5-1.7,3v0c1.6,0.5,2.3,1.9,2.3,3.3c0,2.8-2.3,4.1-4.9,4.1
		h-5.1V51.6z M97.4,57.4c1.1,0,1.8-0.8,1.8-1.8c0-1-0.6-1.8-1.8-1.8h-2.5v3.6H97.4z M97.7,63.6c1.3,0,2.1-0.9,2.1-2.1
		c0-1.2-0.8-2-2.1-2h-2.8v4.1H97.7z"/>
	<path class="st1" d="M105.2,51.6h5.1c2.6,0,4.4,1.3,4.4,3.7c0,1.3-0.6,2.5-1.7,3v0c1.6,0.5,2.3,1.9,2.3,3.3c0,2.8-2.3,4.1-4.9,4.1
		h-5.1V51.6z M110.3,57.4c1.1,0,1.8-0.8,1.8-1.8c0-1-0.6-1.8-1.8-1.8h-2.5v3.6H110.3z M110.5,63.6c1.3,0,2.1-0.9,2.1-2.1
		c0-1.2-0.8-2-2.1-2h-2.8v4.1H110.5z"/>
	<path class="st1" d="M118,51.6h5.1c2.6,0,4.4,1.3,4.4,3.7c0,1.3-0.6,2.5-1.7,3v0c1.6,0.5,2.3,1.9,2.3,3.3c0,2.8-2.3,4.1-4.9,4.1
		H118V51.6z M123.1,57.4c1.1,0,1.8-0.8,1.8-1.8c0-1-0.6-1.8-1.8-1.8h-2.5v3.6H123.1z M123.4,63.6c1.3,0,2.1-0.9,2.1-2.1
		c0-1.2-0.8-2-2.1-2h-2.8v4.1H123.4z"/>
	<path class="st1" d="M130.9,51.6h2.6v12h6.1v2.2h-8.7V51.6z"/>
	<path class="st1" d="M141.7,51.6h8.5v2.2h-5.9v3.7h4.8v2.2h-4.8v3.8h6.2v2.2h-8.8V51.6z"/>
</g>
</svg>
