<?xml version="1.0" encoding="utf-8"?>
<!-- Generator: Adobe Illustrator 19.2.0, SVG Export Plug-In . SVG Version: 6.00 Build 0)  -->
<svg version="1.1" id="Layer_1" xmlns="http://www.w3.org/2000/svg" xmlns:xlink="http://www.w3.org/1999/xlink" x="0px" y="0px"
	 viewBox="0 0 207.8 85.5" style="enable-background:new 0 0 207.8 85.5;" xml:space="preserve">
<style type="text/css">
	.st0{fill:none;stroke:#C6C6C6;stroke-width:2;stroke-linecap:round;stroke-linejoin:round;stroke-miterlimit:10;}
	.st1{fill:#495362;}
	.st2{fill:none;stroke:#000000;stroke-miterlimit:10;}
	.st3{fill:#FFFFFF;}
	.st4{fill:none;stroke:#000000;stroke-width:2;stroke-miterlimit:10;}
	.st5{fill:none;stroke:#C6C6C6;stroke-width:0.75;stroke-linecap:round;stroke-linejoin:round;stroke-miterlimit:10;}
	.st6{fill:none;stroke:#C6C6C6;stroke-width:0.8;stroke-linecap:round;stroke-linejoin:round;stroke-miterlimit:10;}
</style>
<g id="twitter_1_">
	<g>
		<path class="st5" d="M135,25.2c-0.9,0.5-3.6,1.5-6.1,1.7c1.6-0.9,4-3.7,4.6-5.9c-1.5,1-5.1,2.4-6.8,2.4c0,0,0,0,0,0
			c-2-2.1-4.8-3.4-7.9-3.4c-6,0-10.9,4.9-10.9,10.9c0,0.8,0.1,1.7,0.3,2.4h0c-8.2-0.2-17.8-4.3-23.2-11.3
			c-3.3,5.7-0.4,12.1,3.3,14.4c-1.3,0.1-3.7-0.1-4.8-1.2c-0.1,3.8,1.8,8.9,8.4,10.7c-1.3,0.7-3.6,0.5-4.6,0.3
			c0.3,3.2,4.9,7.4,9.8,7.4c-1.8,2-7.7,5.7-15.1,4.5c5,3.1,10.9,4.8,17.1,4.8c17.6,0,31.4-14.3,30.6-31.9c0,0,0,0,0-0.1
			c0,0,0-0.1,0-0.1c0-0.1,0-0.1,0-0.2C131.3,29.7,133.5,27.8,135,25.2z"/>
	</g>
</g>
<g>
	<path class="st1" d="M65,51.6h-4.7v-2.2h11.9v2.2h-4.7v12H65V51.6z"/>
	<path class="st1" d="M85.8,59.2c0.2,0.8,0.2,1.5,0.3,1.5h0c0,0,0.1-0.7,0.2-1.5l2.3-9.8h2.7l-3.7,14.2h-3l-2.2-8.4
		c-0.2-0.9-0.4-1.9-0.4-1.9h0c0,0-0.1,0.9-0.4,1.9l-2.2,8.4h-3L73,49.4h2.7l2.2,9.8c0.2,0.8,0.2,1.5,0.2,1.5h0c0,0,0-0.7,0.3-1.5
		l2.6-9.8h2.2L85.8,59.2z"/>
	<path class="st1" d="M93.6,49.4h2.6v14.2h-2.6V49.4z"/>
	<path class="st1" d="M102.7,51.6H98v-2.2h11.9v2.2h-4.7v12h-2.6V51.6z"/>
	<path class="st1" d="M115.2,51.6h-4.7v-2.2h11.9v2.2h-4.7v12h-2.6V51.6z"/>
	<path class="st1" d="M124.4,49.4h8.5v2.2h-5.9v3.7h4.8v2.2h-4.8v3.8h6.2v2.2h-8.8V49.4z"/>
	<path class="st1" d="M135.9,49.4h4.6c1.5,0,2.2,0.1,2.9,0.4c1.4,0.6,2.3,2,2.3,3.9c0,1.7-0.9,3.3-2.4,3.9v0c0,0,0.2,0.2,0.5,0.7
		l2.9,5.3h-2.9l-2.8-5.3h-2.5v5.3h-2.6V49.4z M140.8,56.1c1.4,0,2.2-0.8,2.2-2.2c0-1.4-0.6-2.2-2.6-2.2h-2v4.4H140.8z"/>
</g>
</svg>
