<?xml version="1.0" encoding="utf-8"?>
<!-- Generator: Adobe Illustrator 19.2.0, SVG Export Plug-In . SVG Version: 6.00 Build 0)  -->
<svg version="1.1" id="Layer_1" xmlns="http://www.w3.org/2000/svg" xmlns:xlink="http://www.w3.org/1999/xlink" x="0px" y="0px"
	 viewBox="0 0 207.8 85.5" style="enable-background:new 0 0 207.8 85.5;" xml:space="preserve">
<style type="text/css">
	.st0{fill:none;stroke:#C6C6C6;stroke-width:2;stroke-linecap:round;stroke-linejoin:round;stroke-miterlimit:10;}
	.st1{fill:#495362;}
	.st2{fill:none;stroke:#000000;stroke-miterlimit:10;}
	.st3{fill:#FFFFFF;}
	.st4{fill:none;stroke:#000000;stroke-width:2;stroke-miterlimit:10;}
	.st5{fill:none;stroke:#C6C6C6;stroke-width:0.75;stroke-linecap:round;stroke-linejoin:round;stroke-miterlimit:10;}
	.st6{fill:none;stroke:#C6C6C6;stroke-width:0.8;stroke-linecap:round;stroke-linejoin:round;stroke-miterlimit:10;}
</style>
<g id="linkedin_1_">
	<g>
		<path class="st5" d="M80.2,64.6H90V31.9h-9.8V64.6z M118.4,30.8c-4.8,0-9,1.7-12.1,5.6v-4.6h-9.9v32.8h9.9V46.9
			c0-3.8,3.4-7.4,7.7-7.4c4.3,0,5.4,3.7,5.4,7.3v17.8h9.8V46C129.3,33.1,123.2,30.8,118.4,30.8z M84.9,15.4c-3.5,0-6.4,2.6-6.4,5.8
			s2.9,5.8,6.4,5.8c3.5,0,6.4-2.6,6.4-5.8S88.5,15.4,84.9,15.4z"/>
	</g>
</g>
<g>
	<path class="st1" d="M59,50.4h2.6v12h6.1v2.2H59V50.4z"/>
	<path class="st1" d="M69.8,50.4h2.6v14.2h-2.6V50.4z"/>
	<path class="st1" d="M76,50.4h2.6l5.4,8.2c0.5,0.8,1.2,2.2,1.2,2.2h0c0,0-0.1-1.4-0.1-2.2v-8.2h2.6v14.2H85l-5.4-8.2
		c-0.5-0.8-1.2-2.2-1.2-2.2h0c0,0,0.1,1.4,0.1,2.2v8.2H76V50.4z"/>
	<path class="st1" d="M91.2,50.4h2.6v5.8h1.8l3.3-5.8h2.8l-4,6.8v0l4.3,7.4h-2.9l-3.5-6.2h-1.8v6.2h-2.6V50.4z"/>
	<path class="st1" d="M104.1,50.4h8.5v2.2h-5.9v3.7h4.8v2.2h-4.8v3.8h6.2v2.2h-8.8V50.4z"/>
	<path class="st1" d="M115.6,50.4h4.8c4.4,0,7.2,2.6,7.2,7.1s-2.9,7.1-7.2,7.1h-4.8V50.4z M120.3,62.4c2.9,0,4.7-1.7,4.7-4.9
		c0-3.2-1.9-4.9-4.7-4.9h-2.1v9.8H120.3z"/>
	<path class="st1" d="M130.4,50.4h2.6v14.2h-2.6V50.4z"/>
	<path class="st1" d="M136.6,50.4h2.6l5.4,8.2c0.5,0.8,1.2,2.2,1.2,2.2h0c0,0-0.1-1.4-0.1-2.2v-8.2h2.6v14.2h-2.6l-5.4-8.2
		c-0.5-0.8-1.2-2.2-1.2-2.2h0c0,0,0.1,1.4,0.1,2.2v8.2h-2.6V50.4z"/>
</g>
</svg>
