<?xml version="1.0" encoding="utf-8"?>
<!-- Generator: Adobe Illustrator 19.2.0, SVG Export Plug-In . SVG Version: 6.00 Build 0)  -->
<svg version="1.1" id="Layer_1" xmlns="http://www.w3.org/2000/svg" xmlns:xlink="http://www.w3.org/1999/xlink" x="0px" y="0px"
	 viewBox="0 0 207.8 85.5" style="enable-background:new 0 0 207.8 85.5;" xml:space="preserve">
<style type="text/css">
	.st0{fill:none;stroke:#C6C6C6;stroke-width:2;stroke-linecap:round;stroke-linejoin:round;stroke-miterlimit:10;}
	.st1{fill:#495362;}
	.st2{fill:none;stroke:#000000;stroke-miterlimit:10;}
	.st3{fill:#FFFFFF;}
	.st4{fill:none;stroke:#000000;stroke-width:2;stroke-miterlimit:10;}
	.st5{fill:none;stroke:#C6C6C6;stroke-width:0.75;stroke-linecap:round;stroke-linejoin:round;stroke-miterlimit:10;}
	.st6{fill:none;stroke:#C6C6C6;stroke-width:0.8;stroke-linecap:round;stroke-linejoin:round;stroke-miterlimit:10;}
</style>
<g>
	<path class="st6" d="M113,44.8l4.9-3.2l4.3-2.8c0.4-0.3,0.7-0.7,0.7-1.2s-0.3-0.9-0.7-1.2l-3.9-2.5l-6-3.8l-0.4-0.2l-0.4,0l-17.7,0
		c-2.1,0-4,0.8-5.5,2.3c-1.5,1.5-2.2,3.4-2.2,5.5c0,4.3,3.5,7.7,7.7,7.7c0,0,0,0,0,0l12.3,0c0.4,1,0.6,2.1,0.6,3.1
		c0,4.5-3.7,8.1-8.1,8.1c-3.2,0-6.1-1.9-7.5-4.9l-0.8-1.7l-1.5,1.2l0,0c-1.5,1.1-3.3,1.8-5.2,1.8c0,0,0,0-0.1,0
		c-4.7,0-8.6-3.8-8.7-8.6c0-1.5,0.4-3.1,1.2-4.4l0.4-0.7l-0.4-0.7c-0.7-1.2-1-2.6-1-4c0-4.7,3.8-8.6,8.4-8.7l0.8,0l0.4-0.8
		c2.5-4.8,7.4-7.9,12.9-7.9c3.5,0,6.9,1.2,9.5,3.4l0.6,0.5l0.8-0.3c1.6-0.6,3.3-0.9,5-0.9c6,0,11.4,3.5,13.6,9.1l0.2,0.4l0.4,0.2
		c2.6,1.6,4.1,4.3,4.1,7.3c0,2.9-1.4,5.7-3.9,7.3l-0.8,0.5l0.1,0.9c0.1,0.5,0.1,0.9,0.1,1.3c0,4.3-3.1,8-7.4,8.6l-1.2,0.2l0,1.2l0,6
		c-4.5-1.2-8.4-4.2-10.1-9"/>
	<line class="st6" x1="118.5" y1="34.2" x2="118.5" y2="41.2"/>
</g>
<g>
	<path class="st1" d="M6.1,50h8.2v2.2H8.7v4h4.7v2.2H8.7v5.7H6.1V50z"/>
	<path class="st1" d="M23.1,49.7c4.2,0,7.3,3.2,7.3,7.2c0,4.2-3.2,7.4-7.3,7.4c-4.2,0-7.3-3.3-7.3-7.4
		C15.7,52.9,18.9,49.7,23.1,49.7z M23.1,62c2.6,0,4.7-2.2,4.7-5.1c0-2.8-2.1-4.9-4.7-4.9s-4.7,2.1-4.7,4.9
		C18.4,59.9,20.5,62,23.1,62z"/>
	<path class="st1" d="M33,50h4.6c1.5,0,2.2,0.1,2.9,0.4c1.4,0.6,2.3,2,2.3,3.9c0,1.7-0.9,3.3-2.4,3.9v0c0,0,0.2,0.2,0.5,0.7l2.9,5.3
		h-2.9l-2.8-5.3h-2.5v5.3H33V50z M37.9,56.6c1.4,0,2.2-0.8,2.2-2.2c0-1.4-0.6-2.2-2.6-2.2h-2v4.4H37.9z"/>
	<path class="st1" d="M46.9,50h2.8l2.8,7c0.3,0.8,0.7,2.1,0.7,2.1h0c0,0,0.4-1.2,0.7-2.1l2.8-7h2.8l1.1,14.2H58l-0.6-7.9
		c-0.1-0.9,0-2.2,0-2.2h0c0,0-0.4,1.4-0.8,2.2l-2.3,5.5h-2.3l-2.3-5.5C49.4,55.4,49,54,49,54h0c0,0,0,1.3,0,2.2l-0.6,7.9h-2.6
		L46.9,50z"/>
	<path class="st1" d="M63.8,50h8.2v2.2h-5.6v4H71v2.2h-4.7v5.7h-2.6V50z"/>
	<path class="st1" d="M80.7,49.7c4.2,0,7.3,3.2,7.3,7.2c0,4.2-3.2,7.4-7.3,7.4c-4.2,0-7.3-3.3-7.3-7.4
		C73.4,52.9,76.5,49.7,80.7,49.7z M80.7,62c2.6,0,4.7-2.2,4.7-5.1c0-2.8-2.1-4.9-4.7-4.9S76,54.2,76,57C76,59.9,78.1,62,80.7,62z"/>
	<path class="st1" d="M90.7,50h4.6c1.5,0,2.2,0.1,2.9,0.4c1.4,0.6,2.3,2,2.3,3.9c0,1.7-0.9,3.3-2.4,3.9v0c0,0,0.2,0.2,0.5,0.7
		l2.9,5.3h-2.9l-2.8-5.3h-2.5v5.3h-2.6V50z M95.6,56.6c1.4,0,2.2-0.8,2.2-2.2c0-1.4-0.6-2.2-2.6-2.2h-2v4.4H95.6z"/>
	<path class="st1" d="M106.8,52.2h-4.7V50H114v2.2h-4.7v12h-2.6V52.2z"/>
	<path class="st1" d="M115.9,50h2.6v6h6.5v-6h2.6v14.2H125v-6h-6.5v6h-2.6V50z"/>
	<path class="st1" d="M137.5,49.7c4.2,0,7.3,3.2,7.3,7.2c0,4.2-3.2,7.4-7.3,7.4c-4.2,0-7.3-3.3-7.3-7.4
		C130.2,52.9,133.3,49.7,137.5,49.7z M137.5,62c2.6,0,4.7-2.2,4.7-5.1c0-2.8-2.1-4.9-4.7-4.9s-4.7,2.1-4.7,4.9
		C132.8,59.9,134.9,62,137.5,62z"/>
	<path class="st1" d="M147.3,50h2.6v9.1c0,1.9,1.2,3,3.1,3s3.2-1.1,3.2-3V50h2.6v9.1c0,3.2-2.3,5.3-5.7,5.3c-3.4,0-5.7-2.2-5.7-5.3
		V50z"/>
	<path class="st1" d="M168.5,49.7c3.5,0,5.3,1.8,5.3,1.8l-1.3,1.9c0,0-1.5-1.4-3.8-1.4c-3.2,0-4.9,2.2-4.9,4.9
		c0,3.1,2.1,5.1,4.8,5.1c2.1,0,3.6-1.5,3.6-1.5v-1.7H170v-2.2h4.5v7.5h-2.2v-0.7c0-0.3,0-0.6,0-0.6h0c0,0-1.5,1.5-4.1,1.5
		c-3.7,0-7-2.9-7-7.4C161.2,52.9,164.3,49.7,168.5,49.7z"/>
	<path class="st1" d="M177.3,50h2.6v6h6.5v-6h2.6v14.2h-2.6v-6h-6.5v6h-2.6V50z"/>
	<path class="st1" d="M195.5,52.2h-4.7V50h11.9v2.2h-4.7v12h-2.6V52.2z"/>
</g>
</svg>
