<svg id="Layer_1" data-name="Layer 1" xmlns="http://www.w3.org/2000/svg" viewBox="0 0 1282.44 198.59"><defs><style>.cls-1,.cls-4,.cls-9{fill:none;}.cls-1{stroke:#c6c6c6;stroke-linecap:round;stroke-linejoin:round;}.cls-1,.cls-9{stroke-width:2px;}.cls-2,.cls-5{fill:#1d1d1b;}.cls-3,.cls-6{fill:#495362;}.cls-4{stroke:#1d1d1b;}.cls-4,.cls-9{stroke-miterlimit:10;}.cls-5{font-size:19.07px;}.cls-5,.cls-6{font-family:Museo Sans;}.cls-6{font-size:21.19px;}.cls-7{fill:#fff;}.cls-8{white-space:pre;}.cls-9{stroke:#000;}</style></defs><title>about_industry-recog</title><path id="logo_svg_path" data-name="logo svg path" d="M624.7,64.16c-3.46,0-5.35-1.95-5.46-5.63a17.73,17.73,0,0,1,1.59-6.71L622.42,48c0.34-.79.68-1.53,1-2.22,1-2.15,1.41-3.14,1.94-4.59a0.71,0.71,0,0,0-.08-0.67,1.35,1.35,0,0,0-1.14-.45A4.46,4.46,0,0,0,621,41.64a5.22,5.22,0,0,0-1.57,3.53,4,4,0,0,0,.07.69,1.65,1.65,0,0,1-.87,1.85,2.43,2.43,0,0,1-1.09.26,2.33,2.33,0,0,1-2.35-2.08c0-.21,0-0.41,0-0.61a8.25,8.25,0,0,1,2.66-6.19,12.57,12.57,0,0,1,8.8-3.68c3.23,0,4.46,1,4.54,3.68,0.06,2-1,4.86-2.59,8.59-0.57,1.32-1.28,3-2,4.82a11.74,11.74,0,0,0-1.06,4.7,1.9,1.9,0,0,0,2,2c1.35,0,2.53-1.3,3.89-3.25l0.07-.1V55.73c-0.14-5.1,1.45-10.53,3.78-12.93a3.27,3.27,0,0,1,2.3-1.17,2.4,2.4,0,0,1,2.65,2.46c0.13,4.32-2.64,9.16-4.74,12.43l-0.09.15,0,0.17c0.43,1.53,1.1,2.31,2,2.31A3.93,3.93,0,0,0,640,58c2.36-2.23,4.55-5.47,4.52-14a15.46,15.46,0,0,0-.73-3.81c-0.48-1.71-.92-3.33-0.33-4.14a2.15,2.15,0,0,1,1.74-.66h0.17c3.1,0,4.32,3.73,4.42,6.93,0.2,6.5-2.39,13.68-6.46,17.87-2.13,2.2-4.49,3.36-6.81,3.36a4.73,4.73,0,0,1-4.26-2.86l-0.26-.49-0.37.41c-2.14,2.38-4.43,3.54-7,3.54"/><line class="cls-1" x1="71.26" y1="88.64" x2="85.01" y2="88.64"/><line class="cls-1" x1="71.26" y1="96.94" x2="85.01" y2="96.94"/><line class="cls-1" x1="71.26" y1="105.25" x2="85.01" y2="105.25"/><line class="cls-1" x1="104.54" y1="88.64" x2="118.2" y2="88.64"/><line class="cls-1" x1="104.54" y1="96.94" x2="118.2" y2="96.94"/><line class="cls-1" x1="104.54" y1="105.25" x2="118.2" y2="105.25"/><path class="cls-1" d="M94.72,119.32V78.74c0-2.52-6.92-4.56-15.87-4.56S63,76.22,63,78.74v40.58c2.89-.79,10-1.24,15.87-1.24A106,106,0,0,1,94.72,119.32Z"/><path class="cls-1" d="M126.47,119.32V78.74c0-2.52-6.92-4.56-15.87-4.56s-15.87,2-15.87,4.56v40.58a106,106,0,0,1,15.87-1.24C116.51,118.08,123.58,118.53,126.47,119.32Z"/><path class="cls-1" d="M948.77,109.18V72.26a2.35,2.35,0,0,0-2.35-2.35H888.9a2.35,2.35,0,0,0-2.35,2.35v36.91"/><path class="cls-1" d="M921.71,115.81v1a1.42,1.42,0,0,1-1.42,1.42H915a1.42,1.42,0,0,1-1.42-1.42v-1H880.09v3.92a2.61,2.61,0,0,0,2.61,2.61h69.9a2.61,2.61,0,0,0,2.61-2.61v-3.92H921.71Z"/><path class="cls-1" d="M1229,109.18V72.26a2.35,2.35,0,0,0-2.35-2.35h-57.51a2.35,2.35,0,0,0-2.35,2.35v36.91"/><path class="cls-1" d="M1202,115.81v1a1.42,1.42,0,0,1-1.42,1.42h-5.26a1.42,1.42,0,0,1-1.42-1.42v-1h-33.52v3.92a2.61,2.61,0,0,0,2.61,2.61h69.9a2.61,2.61,0,0,0,2.61-2.61v-3.92H1202Z"/><path class="cls-2" d="M941,35.25V35.11A1.25,1.25,0,0,0,939.77,34h-5c0-1,.07-2,0.07-2a1.12,1.12,0,0,0-.39-0.94,1.21,1.21,0,0,0-.9-0.37h-32a1.25,1.25,0,0,0-.94.37,1.09,1.09,0,0,0-.34.94c0,0.6,0,1.26,0,2h-4.81a1.29,1.29,0,0,0-1.26,1.13v0.14c0,0.71-.07,1.2-0.07,1.47s0,1.13.11,2.16a19.81,19.81,0,0,0,.46,3,15.09,15.09,0,0,0,1.08,3,9.75,9.75,0,0,0,1.91,2.76,8.48,8.48,0,0,0,3.66,2.23,20,20,0,0,0,.53,2.81,16.1,16.1,0,0,0,14.37,12.21v6.92H912.1a1.26,1.26,0,1,0,0,2.53h11.08a1.26,1.26,0,1,0,0-2.53H918.8a0.68,0.68,0,0,0,0-.23V64.89a16.16,16.16,0,0,0,14.37-12.21,23.14,23.14,0,0,0,.46-2.76,8.65,8.65,0,0,0,3.91-2.28,9.65,9.65,0,0,0,1.86-2.74,15.21,15.21,0,0,0,1.08-3,20.48,20.48,0,0,0,.46-3c0.08-1,.09-1.7.09-2.18V36.63C941.08,36.17,941,35.71,941,35.25Zm-41.49,10.6a8.19,8.19,0,0,1-1.86-3.13,15.53,15.53,0,0,1-.81-3.38,23.1,23.1,0,0,1-.14-2.41,2.1,2.1,0,0,0,0-.39h3.66c0.18,3.89.41,7.38,0.71,10.51A6.32,6.32,0,0,1,899.55,45.85Zm32.13-1.38a46.08,46.08,0,0,1-.92,7.57l0,0a12.87,12.87,0,0,1-4.76,7.43,13.59,13.59,0,0,1-21.57-7.43v0q-1-3.31-1.49-18.83h29.39C932.16,36.9,931.94,40.65,931.68,44.47Zm6.85-7.54c0,0.8,0,1.61-.11,2.41a15,15,0,0,1-.83,3.38,8.18,8.18,0,0,1-1.84,3.13A6.31,6.31,0,0,1,934,47.14c0.21-2.28.44-5.82,0.64-10.6h3.86v0.39h0Z"/><polygon class="cls-2" points="1122.1 173.36 1122.1 173.36 1113.33 164.69 1122.1 156.01 1113.33 156.01 1104.56 164.69 1108.94 169.07 1113.33 173.36 1117.71 177.65 1122.1 173.36"/><polygon class="cls-2" points="1129.02 169.07 1124.63 164.69 1120.24 160.4 1115.96 164.69 1124.63 173.36 1124.63 173.36 1124.63 173.36 1115.86 182.03 1124.63 182.03 1129.02 177.75 1133.4 173.36 1129.02 169.07"/><path class="cls-2" d="M1144.32,164.69a4,4,0,0,0-3.12,1.27,5.18,5.18,0,0,0-1.17,3.61,5.68,5.68,0,0,0,1.07,3.61,3.84,3.84,0,0,0,3.12,1.27,10.76,10.76,0,0,0,2.83-.49v1.27a9.34,9.34,0,0,1-3,.49,5.22,5.22,0,0,1-4.09-1.56,6.63,6.63,0,0,1-1.46-4.58,6.54,6.54,0,0,1,.68-3.22,5.93,5.93,0,0,1,1.95-2.14,6.16,6.16,0,0,1,3.12-.78,7.2,7.2,0,0,1,3.31.68l-0.58,1.17A8.54,8.54,0,0,0,1144.32,164.69Z"/><path class="cls-2" d="M1156.5,172.39a2.83,2.83,0,0,1-1.17,2.44,5,5,0,0,1-3.12.88,7.47,7.47,0,0,1-3.31-.58v-1.36a9.58,9.58,0,0,0,1.56.49,10.52,10.52,0,0,0,1.85.29,3.49,3.49,0,0,0,2-.49,1.75,1.75,0,0,0,.68-1.46,1.45,1.45,0,0,0-.29-1,3.54,3.54,0,0,0-.88-0.78,17.32,17.32,0,0,0-1.75-.78,4.84,4.84,0,0,1-2.34-1.46,3.15,3.15,0,0,1-.68-2.14,2.91,2.91,0,0,1,1.07-2.24,4.12,4.12,0,0,1,2.73-.78,7.77,7.77,0,0,1,3.31.68l-0.39,1.17a7.82,7.82,0,0,0-2.92-.58,3.12,3.12,0,0,0-1.75.49,1.64,1.64,0,0,0-.58,1.36,2.45,2.45,0,0,0,.19,1,1.81,1.81,0,0,0,.78.68,14,14,0,0,0,1.66.78,7.82,7.82,0,0,1,2.63,1.46A3.14,3.14,0,0,1,1156.5,172.39Z"/><path class="cls-2" d="M1165.66,172.39a2.83,2.83,0,0,1-1.17,2.44,5,5,0,0,1-3.12.88,7.47,7.47,0,0,1-3.31-.58v-1.36a8.85,8.85,0,0,0,3.31.68,3.49,3.49,0,0,0,2-.49,1.75,1.75,0,0,0,.68-1.46,1.45,1.45,0,0,0-.29-1,3.54,3.54,0,0,0-.88-0.78,17.32,17.32,0,0,0-1.75-.78,4.84,4.84,0,0,1-2.34-1.46,3.15,3.15,0,0,1-.68-2.14,2.91,2.91,0,0,1,1.07-2.24,4.12,4.12,0,0,1,2.73-.78,7.77,7.77,0,0,1,3.31.68l-0.29,1.36a7.82,7.82,0,0,0-2.92-.58,3.12,3.12,0,0,0-1.75.49,1.64,1.64,0,0,0-.58,1.36,2.45,2.45,0,0,0,.19,1,1.81,1.81,0,0,0,.78.68,14,14,0,0,0,1.66.78,7.82,7.82,0,0,1,2.63,1.46A2.29,2.29,0,0,1,1165.66,172.39Z"/><path class="cls-2" d="M1177.94,169.36a6.27,6.27,0,0,1-1.66,4.58,6.35,6.35,0,0,1-4.68,1.66h-3.9v-12h4.09a6.37,6.37,0,0,1,4.48,1.46A5.57,5.57,0,0,1,1177.94,169.36Zm-3.41.1a3.47,3.47,0,0,0-.68-2.44,2.56,2.56,0,0,0-1.95-.78h-1V173h0.68a2.59,2.59,0,0,0,2.14-.88A3.55,3.55,0,0,0,1174.53,169.46Z"/><path class="cls-2" d="M1184.37,175.8a4.8,4.8,0,0,1-3.61-1.27,4.43,4.43,0,0,1-1.27-3.51,5.18,5.18,0,0,1,1.17-3.61,4.35,4.35,0,0,1,3.41-1.27,4.74,4.74,0,0,1,3.22,1.07,4,4,0,0,1,1.17,3.12v1.46h-5.75a1.72,1.72,0,0,0,.58,1.27,2.39,2.39,0,0,0,1.46.49,7.57,7.57,0,0,0,1.56-.19,6.23,6.23,0,0,0,1.56-.58v2.34a4.17,4.17,0,0,1-1.56.49A12,12,0,0,1,1184.37,175.8Zm-0.19-7.41a1.25,1.25,0,0,0-1,.39,1.58,1.58,0,0,0-.49,1.07h2.73a1.33,1.33,0,0,0-.39-1.07A1,1,0,0,0,1184.18,168.39Z"/><path class="cls-2" d="M1197.33,172.77a2.58,2.58,0,0,1-1,2.24,5,5,0,0,1-2.92.78,9.48,9.48,0,0,1-1.75-.1,9.12,9.12,0,0,1-1.56-.39v-2.53c0.49,0.19,1.07.39,1.66,0.58a9.72,9.72,0,0,0,1.56.19c0.68,0,1.07-.19,1.07-0.49a0.41,0.41,0,0,0-.29-0.39c-0.19-.1-0.78-0.39-1.66-0.78a4.5,4.5,0,0,1-1.75-1.17,3,3,0,0,1-.49-1.66,2.33,2.33,0,0,1,1-2,4.67,4.67,0,0,1,2.83-.68,10.74,10.74,0,0,1,1.75.19,5.63,5.63,0,0,1,1.66.58l-0.88,2a5.64,5.64,0,0,0-1.36-.49,7.2,7.2,0,0,0-1.17-.19c-0.49,0-.78.1-0.78,0.39a0.41,0.41,0,0,0,.29.39c0.19,0.1.68,0.29,1.56,0.68a4.9,4.9,0,0,1,1.46.78,2.69,2.69,0,0,1,.68.88A3.68,3.68,0,0,1,1197.33,172.77Z"/><path class="cls-2" d="M1199.09,164a1.21,1.21,0,0,1,.39-1.07,2.17,2.17,0,0,1,1.27-.39,1.52,1.52,0,0,1,1.27.39,1.21,1.21,0,0,1,.39,1.07c0,1-.58,1.36-1.75,1.36A1.26,1.26,0,0,1,1199.09,164Zm3.31,11.6h-3.22v-9.26h3.22v9.26Z"/><path class="cls-2" d="M1213.32,166.34v1.56l-1.27.49a2,2,0,0,1,.29,1.07,3,3,0,0,1-1.07,2.34,4.77,4.77,0,0,1-3.12.78,1.68,1.68,0,0,1-.78-0.1,0.59,0.59,0,0,0-.1.39,0.41,0.41,0,0,0,.39.39,3,3,0,0,0,1,.1h1.56c2,0,3.12.88,3.12,2.63a2.87,2.87,0,0,1-1.46,2.63,7.92,7.92,0,0,1-4.09,1,5.34,5.34,0,0,1-3-.68,2.09,2.09,0,0,1-1.07-1.85,2.19,2.19,0,0,1,2-2.14,2,2,0,0,1-.78-0.58,1.3,1.3,0,0,1-.29-0.78,1.84,1.84,0,0,1,.19-0.78,4.75,4.75,0,0,1,1-.78,2.86,2.86,0,0,1-1.17-1,3.3,3.3,0,0,1,.68-4,4.36,4.36,0,0,1,2.92-.88,3.36,3.36,0,0,1,.88.1,3.36,3.36,0,0,0,.88.1h3.31Zm-6.92,10.43a0.74,0.74,0,0,0,.39.68,2.11,2.11,0,0,0,1.17.19,4.91,4.91,0,0,0,1.85-.29,0.89,0.89,0,0,0,.68-0.78,0.44,0.44,0,0,0-.39-0.49,3.82,3.82,0,0,0-1.27-.19h-1.27a2.33,2.33,0,0,0-.88.19A0.88,0.88,0,0,0,1206.4,176.77Zm1-7.41c0,1,.29,1.46,1,1.46a0.65,0.65,0,0,0,.68-0.39,1.57,1.57,0,0,0,.29-1.07c0-1-.29-1.46-1-1.46S1207.37,168.39,1207.37,169.36Z"/><path class="cls-2" d="M1220.62,175.6v-5.07a2.58,2.58,0,0,0-.29-1.36,1,1,0,0,0-.88-0.49,1.1,1.1,0,0,0-1.17.68,5.4,5.4,0,0,0-.39,2.24v4.09h-3.22v-9.26h2.44l0.39,1.17h0.19a2.87,2.87,0,0,1,1.17-1,4.55,4.55,0,0,1,1.66-.29,3.24,3.24,0,0,1,2.44.88,3.48,3.48,0,0,1,.88,2.53v6h-3.22V175.6Z"/><path class="cls-2" d="M1234,175.6l-1.46-3.8h-4.78l-1.46,3.8h-1.36l4.78-12h1.17l4.68,12H1234Zm-1.85-5.07-1.36-3.7a18.4,18.4,0,0,1-.58-1.75c-0.1.49-.29,1.07-0.49,1.75l-1.36,3.7h3.8Z"/><path class="cls-2" d="M1244.21,175.6l-1.66-5.26c-0.1-.29-0.29-1.07-0.58-2.14h0a17.92,17.92,0,0,1-.58,2.24l-1.66,5.26h-1.66l-2.44-9h1.46c0.58,2.24,1,4,1.36,5.17a14,14,0,0,1,.49,2.34h0.1a10.11,10.11,0,0,0,.29-1.17,8.13,8.13,0,0,1,.39-1.17l1.66-5.17h1.46l1.56,5.17a20.15,20.15,0,0,1,.58,2.34h0.1a4.94,4.94,0,0,1,.19-0.88c0.1-.39.68-2.63,1.66-6.63h1.36l-2.44,9h-1.66v-0.1Z"/><path class="cls-2" d="M1255.42,175.6l-0.29-1.27H1255a3.65,3.65,0,0,1-1.36,1.17,4.2,4.2,0,0,1-1.66.29,2.75,2.75,0,0,1-2-.68,2.56,2.56,0,0,1-.78-1.95c0-1.85,1.46-2.73,4.39-2.83l1.56-.1v-0.58a2.29,2.29,0,0,0-.49-1.56,2,2,0,0,0-1.46-.49,5.5,5.5,0,0,0-2.53.68l-0.39-1.07c0.49-.19.88-0.39,1.46-0.58a8.53,8.53,0,0,1,1.56-.19,3.2,3.2,0,0,1,2.34.68,3.12,3.12,0,0,1,.78,2.24v6.14h-1v0.1Zm-3-1A2.38,2.38,0,0,0,1255,172v-0.78l-1.36.1a4.65,4.65,0,0,0-2.34.49,1.47,1.47,0,0,0-.68,1.36,1.26,1.26,0,0,0,.49,1.07A1.65,1.65,0,0,0,1252.4,174.63Z"/><path class="cls-2" d="M1263.31,166.44a3.65,3.65,0,0,1,1.07.1l-0.19,1.27a3.66,3.66,0,0,0-1-.1,2.4,2.4,0,0,0-1.85.88,3.47,3.47,0,0,0-.78,2.24v4.78h-1.36v-9h1.07l0.19,1.66h0.1a4.11,4.11,0,0,1,1.17-1.36A2.94,2.94,0,0,1,1263.31,166.44Z"/><path class="cls-2" d="M1272.18,174.43h0a3.52,3.52,0,0,1-2.92,1.36,3.4,3.4,0,0,1-2.73-1.17,6.46,6.46,0,0,1,0-6.82,3.59,3.59,0,0,1,5.55.1h0.1l-0.1-.68v-4.39h1.36V175.6h-1.07Zm-2.73.19a2.64,2.64,0,0,0,2-.78,4.08,4.08,0,0,0,.58-2.44v-0.29a4.17,4.17,0,0,0-.68-2.73,2.24,2.24,0,0,0-2-.78,2.11,2.11,0,0,0-1.85,1,4.72,4.72,0,0,0-.68,2.63,4.78,4.78,0,0,0,.58,2.63A3.15,3.15,0,0,0,1269.45,174.63Z"/><path class="cls-2" d="M1282.12,173.16a2.16,2.16,0,0,1-1,1.95,4.22,4.22,0,0,1-2.63.68,5.81,5.81,0,0,1-2.83-.58v-1.27a5.64,5.64,0,0,0,1.36.49,7.52,7.52,0,0,0,1.46.19,3.88,3.88,0,0,0,1.66-.29,1.12,1.12,0,0,0,.58-1.07,1,1,0,0,0-.49-0.88,4.76,4.76,0,0,0-1.75-.88,7.89,7.89,0,0,1-1.75-.78,2,2,0,0,1-.78-0.78,2,2,0,0,1-.29-1.07,2.21,2.21,0,0,1,.88-1.75,3.63,3.63,0,0,1,2.44-.68,7,7,0,0,1,2.83.58l-0.49,1.07a6.29,6.29,0,0,0-2.44-.58,2.74,2.74,0,0,0-1.46.29,1,1,0,0,0-.49.88,1,1,0,0,0,.19.58,1.54,1.54,0,0,0,.58.49,8.71,8.71,0,0,0,1.56.68,6,6,0,0,1,2.14,1.17A2.08,2.08,0,0,1,1282.12,173.16Z"/><path class="cls-2" d="M861.91,164.45a8,8,0,0,0-3.25.64,7.3,7.3,0,0,0-2.47,1.77,7.86,7.86,0,0,0-1.57,2.65,9.68,9.68,0,0,0-.55,3.28,9.07,9.07,0,0,0,.52,3.1,7.21,7.21,0,0,0,1.47,2.46,6.72,6.72,0,0,0,2.3,1.62,7.52,7.52,0,0,0,3,.58,9.59,9.59,0,0,0,4.1-.84l0.08,0V178l-0.2.11a7.78,7.78,0,0,1-3.82.91,5.77,5.77,0,0,1-2.47-.5,5.14,5.14,0,0,1-1.77-1.35,5.9,5.9,0,0,1-1.08-2,8,8,0,0,1-.37-2.45,8.4,8.4,0,0,1,.41-2.67,6.21,6.21,0,0,1,1.18-2.11,5.36,5.36,0,0,1,1.89-1.39,6.31,6.31,0,0,1,2.58-.5,7.65,7.65,0,0,1,3.45.81l0.2,0.1v-1.83l-0.09,0a9.76,9.76,0,0,0-3.54-.61"/><path class="cls-2" d="M876.31,173.83a6.65,6.65,0,0,0-1.21-1,19.18,19.18,0,0,0-1.69-1c-0.61-.32-1.13-0.62-1.55-0.87a5.3,5.3,0,0,1-1-.74,2.32,2.32,0,0,1-.54-0.77,2.6,2.6,0,0,1-.17-1,2.13,2.13,0,0,1,.24-1,2.22,2.22,0,0,1,.67-0.75,3.19,3.19,0,0,1,1-.47,4.73,4.73,0,0,1,1.25-.16,6.16,6.16,0,0,1,3.11.76l0.2,0.12V165l-0.09,0a8.11,8.11,0,0,0-3.07-.51,6.67,6.67,0,0,0-2,.28,5.07,5.07,0,0,0-1.62.82,4.05,4.05,0,0,0-1.1,1.3,3.62,3.62,0,0,0-.41,1.73,4,4,0,0,0,.22,1.36,3.41,3.41,0,0,0,.68,1.12,6.32,6.32,0,0,0,1.17,1c0.47,0.32,1,.66,1.69,1s1.1,0.62,1.53.88a6.62,6.62,0,0,1,1.05.77,2.56,2.56,0,0,1,.6.8,2.47,2.47,0,0,1,.19,1,2.15,2.15,0,0,1-.81,1.82,4.1,4.1,0,0,1-2.52.64,5.7,5.7,0,0,1-.92-0.08,6.65,6.65,0,0,1-1.89-.61,5.36,5.36,0,0,1-.83-0.5l-0.22-.17v2l0.06,0a3.73,3.73,0,0,0,.78.35,9.43,9.43,0,0,0,1,.27,10,10,0,0,0,1,.17,7.29,7.29,0,0,0,.88.06,7.79,7.79,0,0,0,2.07-.26,4.94,4.94,0,0,0,1.65-.78,3.6,3.6,0,0,0,1.09-1.31,4.11,4.11,0,0,0,.39-1.83A3.66,3.66,0,0,0,877,175a3.89,3.89,0,0,0-.73-1.16"/><path class="cls-2" d="M888.71,175a3.89,3.89,0,0,0-.73-1.16,6.63,6.63,0,0,0-1.21-1,19.23,19.23,0,0,0-1.69-1c-0.61-.32-1.13-0.62-1.55-0.87a5.3,5.3,0,0,1-1-.74,2.32,2.32,0,0,1-.53-0.77,2.59,2.59,0,0,1-.17-1,2.13,2.13,0,0,1,.24-1,2.22,2.22,0,0,1,.67-0.75,3.19,3.19,0,0,1,1-.47A4.73,4.73,0,0,1,885,166a6.16,6.16,0,0,1,3.11.76l0.2,0.12V165l-0.09,0a8.11,8.11,0,0,0-3.07-.51,6.67,6.67,0,0,0-2,.28,5.07,5.07,0,0,0-1.62.82,4,4,0,0,0-1.1,1.3,3.62,3.62,0,0,0-.41,1.73,4,4,0,0,0,.22,1.36,3.41,3.41,0,0,0,.68,1.12,6.31,6.31,0,0,0,1.17,1c0.47,0.32,1,.66,1.69,1s1.1,0.62,1.53.88a6.58,6.58,0,0,1,1.05.77,2.55,2.55,0,0,1,.6.8,2.48,2.48,0,0,1,.19,1,2.15,2.15,0,0,1-.81,1.82,4.1,4.1,0,0,1-2.52.64,5.7,5.7,0,0,1-.92-0.08,6.65,6.65,0,0,1-1.89-.61,5.35,5.35,0,0,1-.83-0.5l-0.22-.17v2l0.06,0a3.73,3.73,0,0,0,.78.35,9.45,9.45,0,0,0,1,.27,10,10,0,0,0,1,.17,7.29,7.29,0,0,0,.88.06,7.79,7.79,0,0,0,2.07-.26,4.94,4.94,0,0,0,1.65-.78,3.6,3.6,0,0,0,1.09-1.31,4.11,4.11,0,0,0,.39-1.83,3.67,3.67,0,0,0-.25-1.37"/><rect class="cls-2" x="919.1" y="164.71" width="1.69" height="15.57"/><path class="cls-2" d="M954,177.45l-9.86-12.74h-1.78v15.57h1.69s0-12.61,0-12.84l10,12.84h1.68V164.71H954s0,12.64,0,12.74"/><path class="cls-2" d="M936.56,177.45l-9.86-12.74h-1.78v15.57h1.69s0-12.61,0-12.84l10,12.84h1.68V164.71h-1.7s0,12.64,0,12.74"/><polygon class="cls-2" points="961.52 173.18 968.04 173.18 968.04 171.63 961.52 171.63 961.52 166.29 969.37 166.29 969.37 164.71 959.83 164.71 959.83 180.28 969.71 180.28 969.71 178.72 961.52 178.72 961.52 173.18"/><path class="cls-2" d="M981.6,175.34c-0.17-.32-0.34-0.61-0.5-0.86a6.13,6.13,0,0,0-.49-0.68,3.57,3.57,0,0,0-.52-0.51,2.29,2.29,0,0,0-.31-0.21,5.28,5.28,0,0,0,1.19-.49,4.28,4.28,0,0,0,1.13-.93,3.93,3.93,0,0,0,.72-1.25,4.53,4.53,0,0,0,.25-1.54,4.05,4.05,0,0,0-.39-1.82,3.86,3.86,0,0,0-1-1.3,4.57,4.57,0,0,0-1.48-.78,5.63,5.63,0,0,0-1.71-.26h-5.41v15.57h1.69v-6.66h2.41a3,3,0,0,1,.83.11,2.06,2.06,0,0,1,.68.35,3.28,3.28,0,0,1,.63.67,9,9,0,0,1,.65,1.07l2.3,4.38,0,0.07h2Zm-6.85-9.05h3.38a3.51,3.51,0,0,1,2.39.73,2.54,2.54,0,0,1,.81,2,3.2,3.2,0,0,1-.24,1.27,2.72,2.72,0,0,1-.67,1,3,3,0,0,1-1,.61,4.15,4.15,0,0,1-1.36.22h-3.27v-5.77h0Z"/><polygon class="cls-2" points="891.4 164.71 901.86 180.28 902.77 178.95 893.22 164.71 891.4 164.71"/><polygon class="cls-2" points="914.53 164.71 905.89 177.6 899.65 168.2 897.81 168.2 905.91 180.28 916.35 164.71 914.53 164.71"/><polygon class="cls-2" points="912.28 164.71 910.47 164.71 904.99 172.92 905.89 174.26 912.28 164.71"/><path class="cls-2" d="M1194,81.79V81.72c-0.49-5.76-8.43-7.94-8.43-7.94s0.63,2.32,4.21,7.58c-8.15.7-11,2-11,2s8,5.48,13.83,1.62a5.86,5.86,0,0,1,.84-0.56,0.55,0.55,0,0,0,.28-0.28C1195.08,82.91,1194.8,82.21,1194,81.79Z"/><path class="cls-2" d="M1169.52,74.35s3.09,0,10.74,2.53c0,0,6.88,2.74.49,3.93S1169.52,74.35,1169.52,74.35Z"/><path class="cls-2" d="M1178.93,68.66s-0.35,2.53.91,9.06c0,0,1.54,5.9,3.23.84S1178.93,68.66,1178.93,68.66Z"/><path class="cls-2" d="M1164.39,63.53s2.95,0.84,9.55,5.48c0,0,5.76,4.56-.7,3.86S1164.39,63.53,1164.39,63.53Z"/><path class="cls-2" d="M1175.13,60.79s-1.05,2.32-1.76,8.92c0,0-.28,6.11,2.88,1.69S1175.13,60.79,1175.13,60.79Z"/><path class="cls-2" d="M1164.74,52.3s2,1.69,5.55,7.51c0,0,2.88,5.55-2,2.81S1164.74,52.3,1164.74,52.3Z"/><path class="cls-2" d="M1174.08,53.77s-1.69,1.4-4.56,6.39c0,0-2.39,4.63,1.62,2.32S1174.08,53.77,1174.08,53.77Z"/><path class="cls-2" d="M1166.78,43.31s1.4,1.69,3.37,7.09c0,0,1.47,5.06-2,2S1166.78,43.31,1166.78,43.31Z"/><path class="cls-2" d="M1174.29,46s-1.62.91-4.85,4.56c0,0-2.74,3.51,1,2.18S1174.29,46,1174.29,46Z"/><path class="cls-2" d="M1176.19,34.53s-1.12,6.6-4.7,10.25S1172.19,37.2,1176.19,34.53Z"/><path class="cls-2" d="M1202.24,81.79V81.72c0.49-5.76,8.43-7.94,8.43-7.94s-0.63,2.32-4.21,7.58c8.15,0.7,11,2,11,2s-8,5.48-13.83,1.62a5.86,5.86,0,0,0-.84-0.56,0.55,0.55,0,0,1-.28-0.28C1201.12,82.91,1201.4,82.21,1202.24,81.79Z"/><path class="cls-2" d="M1226.68,74.35s-3.09,0-10.74,2.53c0,0-6.88,2.74-.49,3.93S1226.68,74.35,1226.68,74.35Z"/><path class="cls-2" d="M1217.27,68.66s0.35,2.53-.91,9.06c0,0-1.54,5.9-3.23.84S1217.27,68.66,1217.27,68.66Z"/><path class="cls-2" d="M1231.81,63.53s-2.95.84-9.55,5.48c0,0-5.76,4.56.7,3.86S1231.81,63.53,1231.81,63.53Z"/><path class="cls-2" d="M1221.06,60.79s1.05,2.32,1.76,8.92c0,0,.28,6.11-2.88,1.69S1221.06,60.79,1221.06,60.79Z"/><path class="cls-2" d="M1231.45,52.3s-2,1.69-5.55,7.51c0,0-2.88,5.55,2,2.81S1231.45,52.3,1231.45,52.3Z"/><path class="cls-2" d="M1222.11,53.77s1.69,1.4,4.56,6.39c0,0,2.39,4.63-1.62,2.32S1222.11,53.77,1222.11,53.77Z"/><path class="cls-2" d="M1229.42,43.31S1228,45,1226,50.4c0,0-1.47,5.06,2,2S1229.42,43.31,1229.42,43.31Z"/><path class="cls-2" d="M1221.9,46s1.62,0.91,4.85,4.56c0,0,2.74,3.51-1,2.18S1221.9,46,1221.9,46Z"/><path class="cls-2" d="M1220,34.53s1.12,6.6,4.7,10.25S1224,37.2,1220,34.53Z"/><polygon class="cls-2" points="1204.49 88.25 1203.37 89.31 1198.59 83.48 1199.01 83.13 1204.49 88.25"/><polygon class="cls-2" points="1192.34 89.09 1191.29 87.97 1197.18 83.34 1197.61 83.76 1192.34 89.09"/><path class="cls-3" d="M1141.86,101.88a3.48,3.48,0,0,1-.56,1.95,3.65,3.65,0,0,1-1.61,1.32,6,6,0,0,1-2.46.47,10,10,0,0,1-2-.17,7.32,7.32,0,0,1-1.66-.58V102a9.5,9.5,0,0,0,1.9.73,7.07,7.07,0,0,0,1.81.26,1.76,1.76,0,0,0,1-.25,0.76,0.76,0,0,0,.33-0.63,0.7,0.7,0,0,0-.13-0.42,1.55,1.55,0,0,0-.43-0.37q-0.29-.19-1.57-0.76a7.51,7.51,0,0,1-1.73-1,3.12,3.12,0,0,1-.86-1.13,3.75,3.75,0,0,1-.28-1.51,3,3,0,0,1,1.19-2.54,5.23,5.23,0,0,1,3.26-.91,9.16,9.16,0,0,1,3.74.85l-1,2.46A7.08,7.08,0,0,0,1138,96a1.49,1.49,0,0,0-.9.22,0.66,0.66,0,0,0-.28.54,0.78,0.78,0,0,0,.36.62,13.69,13.69,0,0,0,1.95,1,5.39,5.39,0,0,1,2.12,1.47A3.2,3.2,0,0,1,1141.86,101.88Z"/><path class="cls-3" d="M1152.25,97.42a4,4,0,0,1-1.17,3.06,4.7,4.7,0,0,1-3.31,1.08h-0.9v3.91h-3.19V93.66h4.08a5,5,0,0,1,3.36,1A3.48,3.48,0,0,1,1152.25,97.42ZM1146.88,99h0.58a1.59,1.59,0,0,0,1.14-.4,1.46,1.46,0,0,0,.42-1.11,1.12,1.12,0,0,0-1.32-1.19h-0.82V99Z"/><path class="cls-3" d="M1161.14,105.46h-7V93.66h7v2.56h-3.82v1.86h3.54v2.56h-3.54v2.23h3.82v2.6Z"/><path class="cls-3" d="M1168.46,96.11a2,2,0,0,0-1.78.93,4.5,4.5,0,0,0-.64,2.57q0,3.41,2.59,3.41a5.3,5.3,0,0,0,1.52-.22,15.16,15.16,0,0,0,1.48-.52V105a8.18,8.18,0,0,1-3.34.65,5.29,5.29,0,0,1-4.1-1.55,6.39,6.39,0,0,1-1.42-4.48,7.15,7.15,0,0,1,.69-3.22,4.94,4.94,0,0,1,2-2.14,6,6,0,0,1,3-.75,8.39,8.39,0,0,1,3.66.83l-1,2.51a11,11,0,0,0-1.31-.52A4.58,4.58,0,0,0,1168.46,96.11Z"/><path class="cls-3" d="M1173.93,105.46V93.66h3.2v11.8h-3.2Z"/><path class="cls-3" d="M1186.93,105.46l-0.58-2.21h-3.83l-0.6,2.21h-3.5l3.85-11.85h4.25l3.9,11.85h-3.49Zm-1.24-4.83-0.51-1.94q-0.18-.65-0.43-1.67t-0.33-1.47q-0.07.41-.29,1.36t-0.95,3.72h2.51Z"/><path class="cls-3" d="M1191.69,105.46V93.66h3.19v9.23h4.54v2.57h-7.73Z"/><path class="cls-3" d="M1215.69,105.46h-3.6l-2.33-4.51-0.94.57v3.95h-3.2V93.66h3.2v5.13a14,14,0,0,1,1-1.51l2.48-3.62h3.49L1212,99Z"/><path class="cls-3" d="M1227,93.66v7.1a4.77,4.77,0,0,1-1.31,3.59,5.22,5.22,0,0,1-3.78,1.27,5.17,5.17,0,0,1-3.71-1.24,4.68,4.68,0,0,1-1.3-3.55V93.66h3.2v6.93a2.84,2.84,0,0,0,.47,1.82,2,2,0,0,0,2.8,0,3,3,0,0,0,.44-1.84V93.66H1227Z"/><path class="cls-3" d="M1239.49,99.31a6.1,6.1,0,0,1-1.63,4.55,6.25,6.25,0,0,1-4.57,1.6h-3.82V93.66h4.08a6.16,6.16,0,0,1,4.39,1.45A5.48,5.48,0,0,1,1239.49,99.31Zm-3.31.11a3.75,3.75,0,0,0-.64-2.41,2.37,2.37,0,0,0-1.95-.78h-0.93v6.61h0.71a2.57,2.57,0,0,0,2.13-.84A4.07,4.07,0,0,0,1236.18,99.43Z"/><path class="cls-3" d="M1252.65,99.55a6.37,6.37,0,0,1-1.46,4.53,6.64,6.64,0,0,1-8.54,0,7.65,7.65,0,0,1,0-9,6.68,6.68,0,0,1,8.55,0A6.37,6.37,0,0,1,1252.65,99.55Zm-8.12,0q0,3.42,2.38,3.42a2,2,0,0,0,1.8-.83,6,6,0,0,0,0-5.2,2,2,0,0,0-1.77-.84Q1244.53,96.09,1244.53,99.55Z"/><path class="cls-3" d="M1262.5,101.88a3.48,3.48,0,0,1-.56,1.95,3.65,3.65,0,0,1-1.61,1.32,6,6,0,0,1-2.46.47,10,10,0,0,1-2-.17,7.32,7.32,0,0,1-1.66-.58V102a9.5,9.5,0,0,0,1.9.73,7.07,7.07,0,0,0,1.81.26,1.76,1.76,0,0,0,1-.25,0.76,0.76,0,0,0,.33-0.63,0.7,0.7,0,0,0-.13-0.42,1.55,1.55,0,0,0-.43-0.37q-0.29-.19-1.57-0.76a7.51,7.51,0,0,1-1.73-1,3.12,3.12,0,0,1-.86-1.13,3.75,3.75,0,0,1-.28-1.51,3,3,0,0,1,1.19-2.54,5.23,5.23,0,0,1,3.26-.91,9.16,9.16,0,0,1,3.74.85l-1,2.46a7.08,7.08,0,0,0-2.86-.76,1.49,1.49,0,0,0-.9.22,0.66,0.66,0,0,0-.28.54,0.78,0.78,0,0,0,.36.62,13.69,13.69,0,0,0,1.95,1,5.39,5.39,0,0,1,2.12,1.47A3.2,3.2,0,0,1,1262.5,101.88Z"/><path class="cls-2" d="M1193.34,59.62h-5.72v-11q0-2,.09-3.68a12.23,12.23,0,0,1-1.31,1.34l-2.37,2-2.92-3.59,7.16-5.83h5.08V59.62Z"/><path class="cls-2" d="M1213,59.62h-15.13V55.91l5.09-5.15q2.18-2.28,2.85-3.12a6.83,6.83,0,0,0,.93-1.43A3.08,3.08,0,0,0,1207,45a1.63,1.63,0,0,0-.53-1.28,2.15,2.15,0,0,0-1.48-.47,4.05,4.05,0,0,0-2,.56,14.29,14.29,0,0,0-2.27,1.66l-3.1-3.62a16.68,16.68,0,0,1,2.71-2.06,9.68,9.68,0,0,1,2.39-.95,11.8,11.8,0,0,1,2.9-.33,8.75,8.75,0,0,1,3.62.71,5.66,5.66,0,0,1,2.47,2,5.23,5.23,0,0,1,.88,3,7.61,7.61,0,0,1-1.26,4.31,14.14,14.14,0,0,1-1.7,2.12q-1.06,1.11-4.53,4.22V55H1213v4.65Z"/><path class="cls-2" d="M1184.61,67.38l-0.93-3.27h0q0.07,0.83.06,1.3v2h-1.09V62.85h1.63l0.95,3.22h0l0.93-3.22h1.63v4.53h-1.13v-2c0-.1,0-0.22,0-0.34s0-.44,0-0.93h0l-0.91,3.26h-1.17Z"/><path class="cls-2" d="M1191.56,67.38l-0.22-.85h-1.47l-0.23.85h-1.35l1.48-4.55h1.63l1.5,4.55h-1.34Zm-0.48-1.85-0.2-.74-0.17-.64q-0.1-.39-0.13-0.56,0,0.16-.11.52t-0.36,1.43h1Z"/><path class="cls-2" d="M1194.61,65.73v1.65h-1.22V62.85h1.48q1.85,0,1.85,1.34a1.34,1.34,0,0,1-.77,1.22l1.32,2h-1.39l-1-1.65h-0.31Zm0-.92h0.23a0.54,0.54,0,0,0,.64-0.57q0-.47-0.63-0.47h-0.24v1Z"/><path class="cls-2" d="M1202.32,67.38H1199V66.57l1.11-1.12q0.47-.5.62-0.68a1.49,1.49,0,0,0,.2-0.31,0.67,0.67,0,0,0,.06-0.27,0.35,0.35,0,0,0-.11-0.28,0.47,0.47,0,0,0-.32-0.1,0.88,0.88,0,0,0-.43.12,3.1,3.1,0,0,0-.49.36l-0.67-.79a3.64,3.64,0,0,1,.59-0.45,2.11,2.11,0,0,1,.52-0.21,2.57,2.57,0,0,1,.63-0.07,1.9,1.9,0,0,1,.79.15,1.23,1.23,0,0,1,.54.44,1.14,1.14,0,0,1,.19.64,1.65,1.65,0,0,1-.27.94,3.08,3.08,0,0,1-.37.46q-0.23.24-1,.92v0h1.71v1Z"/><path class="cls-2" d="M1206.06,65.12a3.05,3.05,0,0,1-.4,1.76,1.42,1.42,0,0,1-1.23.56,1.4,1.4,0,0,1-1.22-.58,3,3,0,0,1-.41-1.74,3.09,3.09,0,0,1,.4-1.77,1.42,1.42,0,0,1,1.23-.56,1.4,1.4,0,0,1,1.22.59A3,3,0,0,1,1206.06,65.12Zm-2.06,0a3.87,3.87,0,0,0,.1,1.06,0.32,0.32,0,0,0,.65,0,5.84,5.84,0,0,0,0-2.1,0.35,0.35,0,0,0-.32-0.3,0.35,0.35,0,0,0-.32.29A3.93,3.93,0,0,0,1204,65.12Z"/><path class="cls-2" d="M1209.2,67.38H1208V65q0-.44,0-0.8a2.64,2.64,0,0,1-.29.29l-0.51.42-0.64-.78,1.56-1.27h1.1v4.53Z"/><path class="cls-2" d="M1210.22,65.46a3.7,3.7,0,0,1,.27-1.54,1.8,1.8,0,0,1,.8-0.87,2.77,2.77,0,0,1,1.3-.28,4.62,4.62,0,0,1,.64.05v1a3.62,3.62,0,0,0-.67-0.06,1.33,1.33,0,0,0-.91.27,1.21,1.21,0,0,0-.33.88h0a0.94,0.94,0,0,1,.9-0.53,1.17,1.17,0,0,1,.94.39,1.89,1.89,0,0,1-.09,2.26,1.8,1.8,0,0,1-2.43-.09A2.15,2.15,0,0,1,1210.22,65.46Zm1.68,1a0.39,0.39,0,0,0,.32-0.15,0.73,0.73,0,0,0,.12-0.47,0.45,0.45,0,0,0-.77-0.41,0.49,0.49,0,0,0-.13.35,0.86,0.86,0,0,0,.13.49A0.39,0.39,0,0,0,1211.9,66.47Z"/><path class="cls-3" d="M843.47,100.4a2.35,2.35,0,0,0-.82-1.82,6.93,6.93,0,0,0-2.92-1.24,9.65,9.65,0,0,1-4-1.78,3.68,3.68,0,0,1-1.42-3,3.88,3.88,0,0,1,1.53-3.12,6,6,0,0,1,4-1.25A5.9,5.9,0,0,1,844,89.67a4.24,4.24,0,0,1,1.5,3.33l0,0.07h-2.06a3,3,0,0,0-.93-2.27,4.53,4.53,0,0,0-5.13-.14,2.37,2.37,0,0,0-.86,1.9,2.09,2.09,0,0,0,.93,1.74,8.84,8.84,0,0,0,3,1.22,8.63,8.63,0,0,1,3.84,1.84,3.94,3.94,0,0,1,1.32,3,3.68,3.68,0,0,1-1.58,3.1,6.74,6.74,0,0,1-4.12,1.17,7.13,7.13,0,0,1-4.22-1.3,3.92,3.92,0,0,1-1.78-3.47l0-.07H836a2.68,2.68,0,0,0,1.13,2.33,4.71,4.71,0,0,0,2.79.8,4.35,4.35,0,0,0,2.59-.69A2.18,2.18,0,0,0,843.47,100.4Z"/><path class="cls-3" d="M850.54,104.42h-2.17v-16h2.17v16Z"/><path class="cls-3" d="M864.58,90.16h-5.13v14.26h-2.16V90.16h-5.12v-1.7h12.41v1.7Z"/><path class="cls-3" d="M875.88,97h-7.31v5.7H877v1.7H866.41v-16h10.47v1.7h-8.31v5.16h7.31V97Z"/><path class="cls-3" d="M896.15,97.87a6.81,6.81,0,0,1-1.81,4.86,6.17,6.17,0,0,1-4.71,1.93,5.85,5.85,0,0,1-4.54-1.93,7,7,0,0,1-1.75-4.86V95a7,7,0,0,1,1.75-4.86,5.83,5.83,0,0,1,4.54-1.94,6.16,6.16,0,0,1,4.71,1.93A6.83,6.83,0,0,1,896.15,95v2.84ZM894,95a5.38,5.38,0,0,0-1.18-3.59,4,4,0,0,0-3.18-1.4,3.66,3.66,0,0,0-3,1.4A5.57,5.57,0,0,0,885.5,95v2.86a5.61,5.61,0,0,0,1.12,3.62,3.66,3.66,0,0,0,3,1.4,4,4,0,0,0,3.18-1.4A5.43,5.43,0,0,0,894,97.87V95Z"/><path class="cls-3" d="M908.29,97.37H901v7.06h-2.16v-16h10.55v1.7H901v5.5h7.28v1.7Z"/><path class="cls-3" d="M927.28,90.16h-5.13v14.26H920V90.16h-5.12v-1.7h12.41v1.7Z"/><path class="cls-3" d="M941.18,104.42H939v-7h-7.75v7h-2.16v-16h2.16v7.21H939V88.47h2.16v16Z"/><path class="cls-3" d="M954.08,97h-7.31v5.7h8.43v1.7H944.61v-16h10.47v1.7h-8.31v5.16h7.31V97Z"/><path class="cls-3" d="M962.27,104.42v-16h4.9a6.56,6.56,0,0,1,6.93,6.89v2.18a6.54,6.54,0,0,1-6.93,6.88h-4.9Zm2.16-14.26v12.56h2.74a4.4,4.4,0,0,0,3.49-1.46,5.46,5.46,0,0,0,1.28-3.73v-2.2a5.43,5.43,0,0,0-1.28-3.71,4.4,4.4,0,0,0-3.49-1.46h-2.74Z"/><path class="cls-3" d="M985,100.31h-6.69l-1.51,4.11h-2.2l6.17-16h1.85l6.07,16h-2.2Zm-6-1.81h5.37l-2.63-7.27h-0.07Z"/><path class="cls-3" d="M995.21,96.58l4.16-8.11h2.47l-5.6,10.35v5.61h-2.15V98.67l-5.51-10.2H991Z"/><path class="cls-3" d="M894.66,121.65a5.91,5.91,0,0,1-1.12,3.87,4.18,4.18,0,0,1-6.14,0,5.86,5.86,0,0,1-1.13-3.87v-3.12a5.9,5.9,0,0,1,1.13-3.87,4.16,4.16,0,0,1,6.14,0,5.9,5.9,0,0,1,1.13,3.87v3.12Zm-1.78-3.51a4.41,4.41,0,0,0-.62-2.57,2.3,2.3,0,0,0-3.59,0,4.43,4.43,0,0,0-.62,2.57V122a4.42,4.42,0,0,0,.62,2.58,2.08,2.08,0,0,0,1.8.87,2,2,0,0,0,1.79-.87,4.5,4.5,0,0,0,.61-2.59v-3.86Z"/><path class="cls-3" d="M896.9,120.73l0.76-7.23h6.6v1.58h-5.09l-0.43,3.7a4.12,4.12,0,0,1,.93-0.51,3.43,3.43,0,0,1,1.18-.22,3.55,3.55,0,0,1,2.87,1.19,4.77,4.77,0,0,1,1,3.24,4.64,4.64,0,0,1-1.06,3.19,3.92,3.92,0,0,1-3.1,1.2,4.25,4.25,0,0,1-2.79-.91,3.16,3.16,0,0,1-1.07-2.69l0-.05h1.61a2.19,2.19,0,0,0,.62,1.66,2.23,2.23,0,0,0,1.61.59,2.1,2.1,0,0,0,1.76-.8,3.44,3.44,0,0,0,.62-2.18,3.28,3.28,0,0,0-.63-2.08,2.09,2.09,0,0,0-1.75-.81,2.8,2.8,0,0,0-1.52.32,1.81,1.81,0,0,0-.69,1Z"/><path class="cls-3" d="M913.54,113.49l4.2,10.71h0.05l4.2-10.71h2.28v13.18h-1.78v-5.21l0.18-5.36h0l-4.27,10.58h-1.19l-4.26-10.56h0l0.17,5.33v5.21h-1.78V113.49h2.28Z"/><path class="cls-3" d="M934.48,123.28H929l-1.25,3.4h-1.82l5.1-13.18h1.53l5,13.18h-1.82Zm-5-1.49h4.44l-2.17-6h-0.05Z"/><path class="cls-3" d="M940.75,121v5.71H939V113.5h4.77a5,5,0,0,1,3.3,1,3.44,3.44,0,0,1,1.14,2.79,3,3,0,0,1-.53,1.77,3.58,3.58,0,0,1-1.54,1.19,2.7,2.7,0,0,1,1.56,1.15,3.75,3.75,0,0,1,.48,2v1.24a4.13,4.13,0,0,0,.14,1.1,1.65,1.65,0,0,0,.47.8v0.22h-1.84a1.48,1.48,0,0,1-.45-0.91,7.48,7.48,0,0,1-.1-1.23v-1.2a2.38,2.38,0,0,0-.62-1.72,2.21,2.21,0,0,0-1.67-.65h-3.31Zm0-1.4h2.81a3.32,3.32,0,0,0,2.18-.57,2.18,2.18,0,0,0,.67-1.75,2.25,2.25,0,0,0-.65-1.72,2.86,2.86,0,0,0-2-.61h-3v4.65Z"/><path class="cls-1" d="M378.27,109.18V72.26a2.35,2.35,0,0,0-2.35-2.35H318.4a2.35,2.35,0,0,0-2.35,2.35v36.91"/><path class="cls-1" d="M351.21,115.81v1a1.42,1.42,0,0,1-1.42,1.42h-5.26a1.42,1.42,0,0,1-1.42-1.42v-1H309.6v3.92a2.61,2.61,0,0,0,2.61,2.61h69.9a2.61,2.61,0,0,0,2.61-2.61v-3.92H351.21Z"/><path class="cls-4" d="M137.15,58.5a51.37,51.37,0,0,1-14,35.27V23.23A51.37,51.37,0,0,1,137.15,58.5Z"/><path class="cls-4" d="M131.77,58.5a51.37,51.37,0,0,1-14,35.27V23.23A51.37,51.37,0,0,1,131.77,58.5Z"/><polygon class="cls-4" points="136.72 54.99 130.91 54.99 133.82 49.96 136.72 44.93 139.63 49.96 142.53 54.99 136.72 54.99"/><circle class="cls-4" cx="117.62" cy="50.38" r="5.56"/><path d="M62.47,53.06V23.91h0.44c3.66,0,7.32-.07,11,0a15,15,0,0,1,11.75,5.44,13.5,13.5,0,0,1,3,7.22,14.53,14.53,0,0,1-1.85,9.27,14.11,14.11,0,0,1-9.59,6.76,19.9,19.9,0,0,1-3.88.41c-3.44.05-6.89,0-10.33,0H62.47Zm5.1-4.67c1.26,0,2.48,0,3.7,0a34.58,34.58,0,0,0,4.1-.19,8.88,8.88,0,0,0,6.19-3.7,10.14,10.14,0,0,0,1.72-7.43,9.4,9.4,0,0,0-9.5-8.45c-2-.06-3.93,0-5.89,0l-0.32,0V48.39Z"/><path d="M85.75,53.06l1.29-3q5.68-13,11.35-26a0.51,0.51,0,0,1,.55-0.38c1.36,0,2.72,0,4.08,0a0.41,0.41,0,0,1,.45.29q4.32,9.94,8.66,19.88Q114,48.21,116,52.58c0.06,0.14.12,0.29,0.19,0.47H110.7c-0.93-2.21-1.86-4.41-2.77-6.61a0.56,0.56,0,0,0-.61-0.41q-6.46,0-12.91,0a0.5,0.5,0,0,0-.56.37q-1.34,3.19-2.72,6.36a0.51,0.51,0,0,1-.34.28C89.13,53.06,87.48,53.06,85.75,53.06Zm15.11-23.21-5,11.63h10Z"/><path d="M54.51,23.93h5V53h-5V23.93Z"/><path d="M74,69.89L72.2,76.39c-0.28,1-.57,2-0.83,2.94a0.32,0.32,0,0,1-.39.29c-0.31,0-.62,0-1,0L67.91,72H67.83l-0.68,2.44c-0.44,1.6-.89,3.2-1.32,4.81a0.38,0.38,0,0,1-.46.36c-0.3,0-.61,0-0.93,0l-2.76-9.73c0.41,0,.78,0,1.14,0a0.48,0.48,0,0,1,.22.32q1,3.51,1.93,7c0,0.09.06,0.18,0.12,0.36l0.77-2.75c0.43-1.55.86-3.1,1.28-4.65a0.32,0.32,0,0,1,.38-0.31c0.32,0,.64,0,1,0L70.6,77.5h0.07l0.92-3.34c0.36-1.31.71-2.61,1.06-3.92a0.38,0.38,0,0,1,.46-0.36C73.4,69.91,73.7,69.89,74,69.89Z"/><path d="M93.38,59.85a10.34,10.34,0,0,1-1.11,0,0.6,0.6,0,0,1-.32-0.3,3.34,3.34,0,0,0-3.34-1.74,3.67,3.67,0,0,0-3.16,2.77,3.89,3.89,0,0,0,2.74,4.88,3.49,3.49,0,0,0,4.24-3H89V61.28h4.59v5.24H92.5V65a1.45,1.45,0,0,0-.2.16,4.53,4.53,0,0,1-6.4.45,5,5,0,0,1-1.7-5,4.72,4.72,0,0,1,3.32-3.81,4.63,4.63,0,0,1,5.78,2.8Z"/><path d="M96.77,58.84v7.67H95.6V56.81c0.39,0,.78,0,1.16,0a0.62,0.62,0,0,1,.34.29l4.72,7.12,0.28,0.4V56.83h1.18v9.71c-0.41,0-.82,0-1.23,0a0.6,0.6,0,0,1-.29-0.29l-4.64-7-0.27-.39Z"/><path d="M84.76,79.61H83.57V70l0.22,0c1.44,0,2.88,0,4.31,0a2.68,2.68,0,0,1,2.61,1.63,2.86,2.86,0,0,1-.41,3.14,6.07,6.07,0,0,1-.59.54,2.54,2.54,0,0,1,1,2.43c0,0.64.07,1.28,0.11,1.94a5.69,5.69,0,0,0-.75,0,0.4,0.4,0,0,1-.5-0.44c0-.62,0-1.23-0.05-1.85a1.29,1.29,0,0,0-1.4-1.49c-1.09,0-2.17,0-3.31,0v3.77Zm0-5c1.2,0,2.37,0,3.53,0a1.61,1.61,0,0,0,1.47-1.72,1.53,1.53,0,0,0-1.42-1.73c-1.16-.08-2.33,0-3.5-0.06a0.23,0.23,0,0,0-.08.05v3.48Z"/><path d="M54.5,66.54V56.92a0.15,0.15,0,0,1,.06,0c1.34,0,2.69-.08,4,0a3.78,3.78,0,0,1,3.51,2.6A6.09,6.09,0,0,1,62,64.19a3.75,3.75,0,0,1-3.36,2.33C57.26,66.61,55.9,66.54,54.5,66.54ZM55.7,58v7.41c0.91,0,1.79,0,2.67,0a2.79,2.79,0,0,0,2.7-2.25,5.55,5.55,0,0,0,0-2.83,2.64,2.64,0,0,0-2.18-2.16A29.73,29.73,0,0,0,55.7,58Z"/><path d="M92.77,69.94c1.39,0,2.75-.06,4.1,0a3.91,3.91,0,0,1,3.63,3,6.4,6.4,0,0,1-.07,3.85,3.82,3.82,0,0,1-3.49,2.79c-1.37.11-2.76,0-4.17,0V69.94ZM94,71v7.4c0.92,0,1.82,0,2.71,0a2.78,2.78,0,0,0,2.66-2.25,5.56,5.56,0,0,0,0-2.83,2.64,2.64,0,0,0-2.18-2.16A29.75,29.75,0,0,0,94,71Z"/><path d="M71.11,65.38v1.14H64.2V56.88h6.9V58H65.4v2.9h5.14V62H65.4v3.37h5.7Z"/><path d="M108.73,72.7h-1.19A1.73,1.73,0,0,0,106.37,71a3,3,0,0,0-2.67.25,1.29,1.29,0,0,0,.18,2.23c0.76,0.26,1.55.41,2.32,0.63a9.3,9.3,0,0,1,1.26.41,2.64,2.64,0,0,1,.7,4.35c-1.22,1.16-4.48,1.35-5.83-.29a3,3,0,0,1-.71-2h1.22a4.75,4.75,0,0,0,.1.55,1.88,1.88,0,0,0,1.15,1.27,3.45,3.45,0,0,0,2.74-.06,1.52,1.52,0,0,0,.94-1.59,1.26,1.26,0,0,0-1-1.21c-0.79-.24-1.61-0.39-2.42-0.6a6.81,6.81,0,0,1-1.17-.42,2.45,2.45,0,0,1-.5-4,4.28,4.28,0,0,1,5.19,0A2.72,2.72,0,0,1,108.73,72.7Z"/><path d="M72.08,63.47h1.16a0.2,0.2,0,0,1,.06.07,2.18,2.18,0,0,0,2.46,2,4.43,4.43,0,0,0,1.56-.32,1.46,1.46,0,0,0,.89-1.57,1.25,1.25,0,0,0-1-1.19c-0.69-.22-1.4-0.34-2.1-0.53a10.22,10.22,0,0,1-1.44-.48,2.46,2.46,0,0,1-.44-4.1,4.36,4.36,0,0,1,5,.08,2.6,2.6,0,0,1,.85,2.18H78a0.17,0.17,0,0,1,0-.06c-0.14-1.46-1.25-1.84-2.45-1.79a3.26,3.26,0,0,0-1.09.25,1.36,1.36,0,0,0-.83,1.61,1,1,0,0,0,.69.78c0.77,0.23,1.55.42,2.32,0.64a9.38,9.38,0,0,1,1.34.43,2.65,2.65,0,0,1,.65,4.33c-1.22,1.14-4.45,1.33-5.8-.27A3,3,0,0,1,72.08,63.47Z"/><path d="M62,79.61H60.69c-0.3-.83-0.61-1.66-0.89-2.49a0.4,0.4,0,0,0-.45-0.33c-1.09,0-2.18,0-3.27,0a0.38,0.38,0,0,0-.42.31c-0.26.75-.55,1.48-0.81,2.23a0.37,0.37,0,0,1-.44.3c-0.31,0-.62,0-1,0a2.92,2.92,0,0,1,.08-0.31c1.14-3,2.29-6,3.42-9.06a0.48,0.48,0,0,1,.55-0.37c1,0,1,0,1.28.88l3.13,8.44C62,79.33,62,79.46,62,79.61Zm-5.84-4h3.08L57.74,71.4Z"/><path d="M73.68,79.62l2.06-5.47c0.5-1.32,1-2.63,1.49-3.95a0.41,0.41,0,0,1,.47-0.32c1,0,1,0,1.37.93L82.2,79.3l0.11,0.32c-0.42,0-.8,0-1.18,0a0.45,0.45,0,0,1-.26-0.27q-0.42-1.11-.81-2.23a0.38,0.38,0,0,0-.42-0.31c-1.1,0-2.2,0-3.31,0a0.35,0.35,0,0,0-.4.28c-0.26.76-.56,1.51-0.82,2.27a0.35,0.35,0,0,1-.4.29C74.38,79.6,74.06,79.62,73.68,79.62ZM78,71.4l-1.55,4.25h3.08Z"/><path d="M81.23,56.84h1.16v9.68H81.23V56.84Z"/><text class="cls-5" transform="translate(12.51 180.79)">Honourable mention</text><text class="cls-5" transform="translate(292.44 180.79)">Abdu<tspan x="45.44" y="0">z</tspan><tspan x="55.05" y="0">eedo</tspan></text><path d="M68.38,88.92A5.93,5.93,0,0,1,67.72,92a3.06,3.06,0,0,1-2.87,1.69A3,3,0,0,1,62.05,92a6.92,6.92,0,0,1,0-6.11,3,3,0,0,1,2.82-1.77,3.07,3.07,0,0,1,2.9,1.74A6,6,0,0,1,68.38,88.92Zm-2.11,1.86a5.84,5.84,0,0,0,.16-3.1c-0.07-.33-0.15-0.66-0.26-1a1.3,1.3,0,0,0-1.27-.94,1.34,1.34,0,0,0-1.3.9,5.65,5.65,0,0,0,0,4.47,1.36,1.36,0,0,0,2.57-.05Z"/><path d="M77.55,87.77c1.79-.59,3.13-0.27,4,0.89a3.27,3.27,0,0,1,.07,3.76,3.56,3.56,0,0,1-4,1.22A2.77,2.77,0,0,1,75.53,91c0.52,0,1,0,1.56,0a0.54,0.54,0,0,1,.32.28,1.63,1.63,0,0,0,2.22.57,1.54,1.54,0,0,0,.51-2.13,1.39,1.39,0,0,0-2.06-.47c-0.81.76-1.49,0.3-2.29,0.1l0.55-5.14h5.23v1.65c-1.06,0-2.1,0-3.15,0-0.53,0-.76.11-0.73,0.67A8.4,8.4,0,0,1,77.55,87.77Z"/><path d="M55.35,87.53H53.6a3.13,3.13,0,0,1,1.31-2.77,3.66,3.66,0,0,1,4,0,2.89,2.89,0,0,1-.21,4.71c-0.7.47-1.46,0.86-2.17,1.31a1.91,1.91,0,0,0-1,1.15h4.43v1.66H53.47a3.94,3.94,0,0,1,1.7-4c0.62-.43,1.29-0.79,1.94-1.18a4.3,4.3,0,0,0,.4-0.28,1.28,1.28,0,0,0,.61-1.49,1.15,1.15,0,0,0-1.23-.78,1.35,1.35,0,0,0-1.37.94C55.45,87,55.41,87.27,55.35,87.53Z"/><path d="M69.73,87.06a5.53,5.53,0,0,0,0-.57,0.55,0.55,0,0,1,.54-0.71,1.67,1.67,0,0,0,1.29-1.56H73V93.6H71.2V87.06H69.73Z"/><text class="cls-6" transform="translate(247.34 99.2)">SITES OF THE WEEK</text><g id="PxyKeQ.tif"><path d="M372.52,44.14A26.15,26.15,0,1,1,346.87,18,26.15,26.15,0,0,1,372.52,44.14Zm-16.39,2.77c-0.46.45-.85,0.85-1.25,1.23a0.33,0.33,0,0,0-.09.46c0.4,0.84.79,1.69,1.18,2.54l3.2,6.93A1.61,1.61,0,1,0,362,56.65L351.69,34.18c-1.14-2.47-2.27-4.93-3.42-7.39a1.94,1.94,0,0,0-.57-0.72,1.76,1.76,0,0,0-2.66.84l-10.4,22.57-3.32,7.19a1.62,1.62,0,0,0,2.59,1.88q6.63-5.76,13.29-11.48a0.7,0.7,0,0,1,.42-0.16h8.5Z"/><path class="cls-7" d="M356.13,46.91h-8.5a0.7,0.7,0,0,0-.42.16q-6.65,5.73-13.29,11.48a1.62,1.62,0,0,1-2.59-1.88l3.32-7.19L345,26.91a1.76,1.76,0,0,1,2.66-.84,1.94,1.94,0,0,1,.57.72c1.15,2.46,2.28,4.93,3.42,7.39L362,56.65a1.61,1.61,0,1,1-2.88,1.43L356,51.14c-0.39-.85-0.78-1.7-1.18-2.54a0.33,0.33,0,0,1,.09-0.46C355.29,47.76,355.68,47.36,356.13,46.91Zm-18.75,4.31,0,0,0.22-.18,8-6.91a1.87,1.87,0,0,1,1.29-.49h5.63L346.7,31Z"/><path d="M337.39,51.22L346.7,31l5.84,12.68h-5.63a1.87,1.87,0,0,0-1.29.49l-8,6.91-0.22.18Z"/></g><path class="cls-1" d="M664.35,109.18V72.26A2.35,2.35,0,0,0,662,69.91H604.48a2.35,2.35,0,0,0-2.35,2.35v36.91"/><path class="cls-1" d="M637.29,115.81v1a1.42,1.42,0,0,1-1.42,1.42h-5.26a1.42,1.42,0,0,1-1.42-1.42v-1H595.67v3.92a2.61,2.61,0,0,0,2.61,2.61h69.9a2.61,2.61,0,0,0,2.61-2.61v-3.92H637.29Z"/><text class="cls-5" transform="translate(548.28 180.79)">W<tspan x="17.32" y="0">ebdesigner depot</tspan></text><text class="cls-6" transform="translate(552.34 101.32)"><tspan class="cls-8"> THE BEST NEW </tspan><tspan x="-10.07" y="25.43">PORTFOLIO SITES</tspan></text><circle class="cls-9" cx="632.94" cy="48.04" r="27.55"/></svg>