<svg id="Layer_1" data-name="Layer 1" xmlns="http://www.w3.org/2000/svg" viewBox="0 0 1231.8 626.4"><defs><style>.cls-1,.cls-2,.cls-3{fill:#1f1f1d;}.cls-1,.cls-3{stroke:#1f1f1d;stroke-miterlimit:10;}.cls-1{stroke-width:2px;}.cls-4{fill:#e9e8e8;}.cls-5{fill:#d3d719;}.cls-6{fill:#e41379;}.cls-7{fill:#213f8e;}</style></defs><title>stylindex_logo</title><path class="cls-1" d="M371.9,30V81h5V35h165V155h-165v-7h-5v13h174V30h-174Z"/><path class="cls-2" d="M267.83,104.65a6.16,6.16,0,0,0-3.92,1.12,3.59,3.59,0,0,0,.11,5.79,22,22,0,0,0,4.11,2.32q2.59,1.17,3.92,1.9a18.2,18.2,0,0,1,2.88,2,8.83,8.83,0,0,1,3.15,7.26,9.33,9.33,0,0,1-3.44,7.56q-3.44,2.86-9.29,2.86a19.53,19.53,0,0,1-9.85-2.3v-6.89a16.8,16.8,0,0,0,10,3.31,6.12,6.12,0,0,0,4-1.2,3.93,3.93,0,0,0,1.5-3.23,3.78,3.78,0,0,0-.37-1.71,4.17,4.17,0,0,0-1.55-1.49,27.17,27.17,0,0,0-5.07-2.62q-2-.91-3.2-1.63a19.1,19.1,0,0,1-2.67-1.95,8.62,8.62,0,0,1-2.88-6.94,8.94,8.94,0,0,1,3.39-7.26,13.33,13.33,0,0,1,8.73-2.78,20.82,20.82,0,0,1,9,1.76v6.51A16.33,16.33,0,0,0,267.83,104.65Z"/><path class="cls-2" d="M306.7,99v5.55h-9.13V135h-6.78V104.6h-9.13V99h25Z"/><path class="cls-2" d="M328,135h-6.73V121.9L309,99h7.85q6.46,14,7.74,17.46,0.48-2,5.5-12.23L332.55,99h7.85L328,121.69V135Z"/><path class="cls-2" d="M351.82,129.05h14v6H345.09V99h6.73v30Z"/><path class="cls-2" d="M374.14,103.75a3.83,3.83,0,1,1,2.72-1.12A3.71,3.71,0,0,1,374.14,103.75ZM370.94,135V108h6.41V135h-6.41Z"/><path class="cls-2" d="M384.82,135V99h7.64q10.89,19,12.52,22t2.8,5.71q-0.43-4.43-.43-12.71V99h6.78v36h-7.69l-8.76-15A120.43,120.43,0,0,1,391,107.16a115.64,115.64,0,0,1,.59,12.87v15h-6.73Z"/><path class="cls-2" d="M421.55,99H433.3q8.06,0,13.19,5a17.15,17.15,0,0,1,5.13,12.89,17.9,17.9,0,0,1-5,13q-5,5.1-13.35,5.1H421.55V99Zm6.89,30.38h4.75q5.66,0,8.6-3.5a13.56,13.56,0,0,0,2.94-9A12.45,12.45,0,0,0,441.6,108a11.1,11.1,0,0,0-8.52-3.34h-4.65v24.72Z"/><path class="cls-2" d="M464.38,129.54h14.68V135H457.59V99h21.25v5.5H464.38v9.77h12.87v5.45H464.38v9.77Z"/><path class="cls-2" d="M499,110.85L505.7,99h8.17L503,116.83,514.78,135h-8l-7.64-12.44q-0.8,1.55-3.82,6.54t-3.5,5.9h-8.06l11.43-18.21L484.29,99h7.85Z"/><path class="cls-3" d="M826.4,48.61V75.5h5V53.94l48-.17V130.1l-48,.17V125.5h-5v10.15l59-.21v-87Z"/><path class="cls-2" d="M811.44,90.69a5.43,5.43,0,0,0-3.46,1,3.17,3.17,0,0,0,.09,5.11,19.37,19.37,0,0,0,3.62,2q2.28,1,3.46,1.67a16,16,0,0,1,2.54,1.76,7.78,7.78,0,0,1,2.78,6.4,8.22,8.22,0,0,1-3,6.66,12.43,12.43,0,0,1-8.19,2.52,17.21,17.21,0,0,1-8.68-2v-6.07a14.8,14.8,0,0,0,8.85,2.92,5.4,5.4,0,0,0,3.48-1.06,3.46,3.46,0,0,0,1.32-2.85,3.33,3.33,0,0,0-.33-1.51,3.68,3.68,0,0,0-1.36-1.32,24,24,0,0,0-4.47-2.31q-1.74-.8-2.82-1.44a16.84,16.84,0,0,1-2.35-1.72,7.6,7.6,0,0,1-2.54-6.12,7.87,7.87,0,0,1,3-6.4A11.75,11.75,0,0,1,811,85.51a18.34,18.34,0,0,1,8,1.55V92.8A14.39,14.39,0,0,0,811.44,90.69Z"/><path class="cls-2" d="M828.33,89.89a3.37,3.37,0,1,1,2.4-1A3.27,3.27,0,0,1,828.33,89.89Zm-2.82,28V93.6h5.65v24.23h-5.65Z"/><rect class="cls-4" x="188.5" y="415.94" width="79.07" height="79.07"/><rect class="cls-5" x="273.64" y="415.94" width="79.07" height="79.07"/><rect class="cls-5" x="188.5" y="502.14" width="79.07" height="79.07"/><rect class="cls-6" x="273.64" y="502.14" width="79.07" height="79.07"/><rect class="cls-7" x="777.13" y="415.94" width="79.07" height="79.07"/><rect class="cls-4" x="862.28" y="415.94" width="79.07" height="79.07"/><rect class="cls-5" x="777.13" y="502.14" width="79.07" height="79.07"/><rect class="cls-5" x="947.43" y="415.94" width="79.07" height="79.07"/><rect class="cls-4" x="947.43" y="502.14" width="79.07" height="79.07"/><rect class="cls-6" x="862.28" y="502.14" width="79.07" height="79.07"/><rect class="cls-4" x="484.23" y="415.94" width="79.07" height="79.07" rx="39.53" ry="39.53"/><rect class="cls-7" x="569.37" y="415.94" width="79.07" height="79.07" rx="39.53" ry="39.53"/><rect class="cls-7" x="484.23" y="502.14" width="79.07" height="79.07" rx="39.53" ry="39.53"/><rect class="cls-5" x="569.37" y="502.14" width="79.07" height="79.07" rx="39.53" ry="39.53"/><polygon class="cls-2" points="376.36 361.15 376.36 560.89 243.32 560.89 243.32 404.13 246.05 404.13 246.05 558.17 373.63 558.17 373.63 363.86 246.05 363.86 246.05 375.95 243.32 375.95 243.32 361.15 376.36 361.15"/><path class="cls-2" d="M197.42,389.56q-0.62-.33-1.82-0.88a10.11,10.11,0,0,1-1.9-1.08,1.66,1.66,0,0,1,0-2.68,2.85,2.85,0,0,1,1.82-.52,7.56,7.56,0,0,1,4,1.11v-3a9.63,9.63,0,0,0-4.18-.82,6.18,6.18,0,0,0-4,1.29,4.14,4.14,0,0,0-1.57,3.36,4,4,0,0,0,1.33,3.21,8.84,8.84,0,0,0,1.24.9q0.57,0.33,1.48.75a12.57,12.57,0,0,1,2.35,1.21,1.93,1.93,0,0,1,.72.69,1.75,1.75,0,0,1,.17.79,1.82,1.82,0,0,1-.69,1.5,2.84,2.84,0,0,1-1.83.56,7.78,7.78,0,0,1-4.65-1.53v3.19a9,9,0,0,0,4.56,1.06,6.53,6.53,0,0,0,4.3-1.32,4.32,4.32,0,0,0,1.59-3.5,4.09,4.09,0,0,0-1.46-3.36A8.45,8.45,0,0,0,197.42,389.56Z"/><polygon class="cls-2" points="201.87 384.38 206.1 384.38 206.1 398.47 209.24 398.47 209.24 384.38 213.46 384.38 213.46 381.81 201.87 381.81 201.87 384.38"/><path class="cls-2" d="M224.29,384.23a48.94,48.94,0,0,0-2.55,5.66q-0.59-1.61-3.58-8.08h-3.63l5.69,10.58v6.08h3.12v-6.18l5.74-10.48h-3.63Z"/><polygon class="cls-2" points="240.85 395.7 240.85 398.47 231.24 398.47 231.24 381.81 234.35 381.81 234.35 395.7 240.85 395.7"/><rect class="cls-2" x="243.2" y="385.94" width="2.97" height="12.53"/><path class="cls-2" d="M246.46,382.2a1.73,1.73,0,0,1-.51,1.27,1.72,1.72,0,0,1-1.26.52,1.69,1.69,0,0,1-1.26-.52,1.71,1.71,0,0,1-.52-1.27,1.79,1.79,0,0,1,3-1.28A1.75,1.75,0,0,1,246.46,382.2Z"/><path class="cls-2" d="M263.2,381.81v16.66h-3.56l-4.06-6.92a55,55,0,0,1-3.11-6,53.84,53.84,0,0,1,.27,6v6.95h-3.12V381.81h3.54q5,8.77,5.8,10.19c0.5,0.93.93,1.82,1.29,2.64q-0.19-2-.2-5.88v-6.95h3.14Z"/><path class="cls-2" d="M278.18,384.11a8.39,8.39,0,0,0-6.11-2.3h-5.44v16.66h5.44a8,8,0,0,0,8.48-8.39A7.93,7.93,0,0,0,278.18,384.11ZM276,394.26a4.89,4.89,0,0,1-4,1.62h-2.2V384.43H272a5.12,5.12,0,0,1,3.94,1.54,5.74,5.74,0,0,1,1.45,4.1A6.28,6.28,0,0,1,276,394.26Z"/><polygon class="cls-2" points="293.26 395.93 293.26 398.47 283.32 398.47 283.32 381.81 293.16 381.81 293.16 384.36 286.46 384.36 286.46 388.88 292.42 388.88 292.42 391.41 286.46 391.41 286.46 395.93 293.26 395.93"/><path class="cls-2" d="M309.8,398.47h-3.71l-3.53-5.75c-0.25.47-.84,1.48-1.77,3s-1.47,2.45-1.62,2.73h-3.73l5.29-8.43-5.05-8.23h3.64l3.19,5.46,3.09-5.46h3.79l-5,8.23Z"/><polygon class="cls-2" points="1048.91 361.15 1048.91 560.89 831.96 560.89 831.96 404.13 834.69 404.13 834.69 558.17 1046.19 558.17 1046.19 363.86 834.69 363.86 834.69 375.95 831.96 375.95 831.96 361.15 1048.91 361.15"/><path class="cls-2" d="M786.06,389.56q-0.62-.33-1.82-0.88a10.11,10.11,0,0,1-1.9-1.08,1.66,1.66,0,0,1,0-2.68,2.85,2.85,0,0,1,1.82-.52,7.56,7.56,0,0,1,4,1.11v-3a9.63,9.63,0,0,0-4.18-.82,6.18,6.18,0,0,0-4,1.29,4.14,4.14,0,0,0-1.57,3.36,4,4,0,0,0,1.33,3.21,8.84,8.84,0,0,0,1.24.9q0.57,0.33,1.48.75a12.57,12.57,0,0,1,2.35,1.21,1.93,1.93,0,0,1,.72.69,1.75,1.75,0,0,1,.17.79,1.82,1.82,0,0,1-.69,1.5A2.84,2.84,0,0,1,783,396a7.78,7.78,0,0,1-4.65-1.53v3.19a9,9,0,0,0,4.56,1.06,6.53,6.53,0,0,0,4.3-1.32,4.32,4.32,0,0,0,1.59-3.5,4.09,4.09,0,0,0-1.46-3.36A8.45,8.45,0,0,0,786.06,389.56Z"/><polygon class="cls-2" points="790.51 384.38 794.73 384.38 794.73 398.47 797.87 398.47 797.87 384.38 802.1 384.38 802.1 381.81 790.51 381.81 790.51 384.38"/><path class="cls-2" d="M812.93,384.23a48.94,48.94,0,0,0-2.55,5.66q-0.59-1.61-3.58-8.08h-3.63l5.69,10.58v6.08H812v-6.18l5.74-10.48h-3.63Z"/><polygon class="cls-2" points="829.49 395.7 829.49 398.47 819.88 398.47 819.88 381.81 822.99 381.81 822.99 395.7 829.49 395.7"/><rect class="cls-2" x="831.84" y="385.94" width="2.97" height="12.53"/><path class="cls-2" d="M835.1,382.2a1.77,1.77,0,0,1-1.78,1.79,1.69,1.69,0,0,1-1.26-.52,1.71,1.71,0,0,1-.52-1.27,1.79,1.79,0,0,1,3-1.28A1.75,1.75,0,0,1,835.1,382.2Z"/><path class="cls-2" d="M851.84,381.81v16.66h-3.56l-4.06-6.92a55,55,0,0,1-3.11-6,53.85,53.85,0,0,1,.27,6v6.95h-3.12V381.81h3.54q5,8.77,5.8,10.19c0.5,0.93.93,1.82,1.29,2.64q-0.19-2-.2-5.88v-6.95h3.14Z"/><path class="cls-2" d="M866.82,384.11a8.39,8.39,0,0,0-6.11-2.3h-5.44v16.66h5.44a8,8,0,0,0,8.48-8.39A7.93,7.93,0,0,0,866.82,384.11Zm-2.17,10.15a4.92,4.92,0,0,1-4,1.62h-2.2V384.43h2.15a5.12,5.12,0,0,1,3.94,1.54,5.74,5.74,0,0,1,1.45,4.1A6.32,6.32,0,0,1,864.65,394.26Z"/><polygon class="cls-2" points="881.9 395.93 881.9 398.47 871.96 398.47 871.96 381.81 881.8 381.81 881.8 384.36 875.1 384.36 875.1 388.88 881.06 388.88 881.06 391.41 875.1 391.41 875.1 395.93 881.9 395.93"/><path class="cls-2" d="M898.44,398.47h-3.71l-3.53-5.75c-0.25.47-.84,1.48-1.77,3s-1.47,2.45-1.62,2.73h-3.73l5.29-8.43-5.05-8.23H888l3.19,5.46,3.1-5.46H898L893,390Z"/><polygon class="cls-2" points="672.08 361.15 672.08 560.89 539.05 560.89 539.05 404.13 541.78 404.13 541.78 558.17 669.36 558.17 669.36 363.86 541.78 363.86 541.78 375.95 539.05 375.95 539.05 361.15 672.08 361.15"/><path class="cls-2" d="M493.15,389.56q-0.62-.33-1.82-0.88a10.11,10.11,0,0,1-1.9-1.08,1.66,1.66,0,0,1,0-2.68,2.85,2.85,0,0,1,1.82-.52,7.56,7.56,0,0,1,4,1.11v-3a9.63,9.63,0,0,0-4.18-.82,6.18,6.18,0,0,0-4,1.29,4.14,4.14,0,0,0-1.57,3.36,4,4,0,0,0,1.33,3.21,8.84,8.84,0,0,0,1.24.9q0.57,0.33,1.48.75a12.57,12.57,0,0,1,2.35,1.21,1.93,1.93,0,0,1,.72.69,1.75,1.75,0,0,1,.17.79,1.82,1.82,0,0,1-.69,1.5,2.84,2.84,0,0,1-1.83.56,7.78,7.78,0,0,1-4.65-1.53v3.19a9,9,0,0,0,4.56,1.06,6.53,6.53,0,0,0,4.3-1.32,4.32,4.32,0,0,0,1.59-3.5,4.09,4.09,0,0,0-1.46-3.36A8.45,8.45,0,0,0,493.15,389.56Z"/><polygon class="cls-2" points="497.6 384.38 501.83 384.38 501.83 398.47 504.97 398.47 504.97 384.38 509.19 384.38 509.19 381.81 497.6 381.81 497.6 384.38"/><path class="cls-2" d="M520,384.23a48.94,48.94,0,0,0-2.55,5.66q-0.59-1.61-3.58-8.08h-3.63l5.69,10.58v6.08h3.12v-6.18l5.74-10.48h-3.63Z"/><polygon class="cls-2" points="536.58 395.7 536.58 398.47 526.96 398.47 526.96 381.81 530.08 381.81 530.08 395.7 536.58 395.7"/><rect class="cls-2" x="538.93" y="385.94" width="2.97" height="12.53"/><path class="cls-2" d="M542.19,382.2a1.73,1.73,0,0,1-.51,1.27,1.72,1.72,0,0,1-1.26.52,1.69,1.69,0,0,1-1.26-.52,1.71,1.71,0,0,1-.52-1.27,1.79,1.79,0,0,1,3-1.28A1.75,1.75,0,0,1,542.19,382.2Z"/><path class="cls-2" d="M558.93,381.81v16.66h-3.56l-4.06-6.92a55,55,0,0,1-3.11-6,53.85,53.85,0,0,1,.27,6v6.95h-3.12V381.81h3.54q5,8.77,5.8,10.19c0.5,0.93.93,1.82,1.29,2.64q-0.19-2-.2-5.88v-6.95h3.14Z"/><path class="cls-2" d="M573.91,384.11a8.39,8.39,0,0,0-6.11-2.3h-5.44v16.66h5.44a8,8,0,0,0,8.48-8.39A7.93,7.93,0,0,0,573.91,384.11Zm-2.18,10.15a4.89,4.89,0,0,1-4,1.62h-2.2V384.43h2.15a5.12,5.12,0,0,1,3.94,1.54,5.74,5.74,0,0,1,1.45,4.1A6.28,6.28,0,0,1,571.73,394.26Z"/><polygon class="cls-2" points="588.99 395.93 588.99 398.47 579.05 398.47 579.05 381.81 588.89 381.81 588.89 384.36 582.19 384.36 582.19 388.88 588.15 388.88 588.15 391.41 582.19 391.41 582.19 395.93 588.99 395.93"/><path class="cls-2" d="M605.53,398.47h-3.71l-3.53-5.75c-0.25.47-.84,1.48-1.77,3s-1.47,2.45-1.62,2.73h-3.73l5.28-8.43-5-8.23H595l3.19,5.46,3.09-5.46h3.79L600.06,390Z"/></svg>